<?xml version="1.0" encoding="UTF-8" standalone="no"?>
<svg
   xmlns:dc="http://purl.org/dc/elements/1.1/"
   xmlns:cc="http://creativecommons.org/ns#"
   xmlns:rdf="http://www.w3.org/1999/02/22-rdf-syntax-ns#"
   xmlns:svg="http://www.w3.org/2000/svg"
   xmlns="http://www.w3.org/2000/svg"
   viewBox="0 0 1280 855"
   height="855"
   width="1280"
   version="1.1"
   id="svg3410">
  <metadata
     id="metadata3416">
    <rdf:RDF>
      <cc:Work
         rdf:about="">
        <dc:format>image/svg+xml</dc:format>
        <dc:type
           rdf:resource="http://purl.org/dc/dcmitype/StillImage" />
        <dc:title></dc:title>
      </cc:Work>
    </rdf:RDF>
  </metadata>
  <defs
     id="defs3414" />
  <style
     type="text/css"
     id="style3473">
	.st0{fill:#DD0031;}
	.st1{fill:#C3002F;}
	.st2{fill:#FFFFFF;}
</style>
  <g
     transform="matrix(0.17234044,0,0,0.17234044,648.47625,360.74436)"
     style="fill:none;fill-rule:evenodd;stroke:none;stroke-width:1"
     id="SVG">
    <g
       id="Cookie">
      <g
         id="g3798">
        <path
           style="fill:#b4814a"
           d="m 486.30116,273.4592 c -29.41177,0 -53.25605,-24.01445 -53.25605,-53.63613 0,-9.33161 2.36967,-18.10994 6.53504,-25.74864 -6.27266,1.96542 -12.93889,3.0307 -19.85111,3.0307 -36.75856,0 -66.56391,-30.01806 -66.56391,-67.03896 0,-1.37084 0.12299,-2.70865 0.20498,-4.05471 -7.0762,2.57651 -14.66898,4.05471 -22.62254,4.05471 -36.75857,0 -66.56392,-30.01807 -66.56392,-67.047228 0,-7.622194 1.33652,-14.905807 3.6734,-21.71871 -3.95219,0.858839 -8.04376,1.346065 -12.25833,1.346065 -21.79439,0 -40.75994,-12.238452 -50.47641,-30.257549 C 94.961408,35.957264 12.29358,134.46772 12.29358,252.44243 c 0,135.56438 109.11957,245.4627 243.72332,245.4627 128.09331,0 233.03111,-99.55922 242.88697,-226.01496 -4.05058,0.98271 -8.25695,1.56903 -12.60271,1.56903"
           id="Fill-1" />
        <path
           style="fill:#513a2b"
           d="m 267.86688,301.62085 c 0,31.71923 -25.52518,57.42658 -57.01964,57.42658 -31.49446,0 -57.01965,-25.70735 -57.01965,-57.42658 0,-31.71922 25.52519,-57.42658 57.01965,-57.42658 31.49446,0 57.01964,25.70736 57.01964,57.42658"
           id="Fill-5" />
        <path
           style="fill:#2e2e30"
           d="m 210.8497,256.57972 c -24.66424,0 -44.72033,20.20748 -44.72033,45.03948 0,24.832 20.05609,45.03948 44.72033,45.03948 24.66423,0 44.72032,-20.20748 44.72032,-45.03948 0,-24.832 -20.05609,-45.03948 -44.72032,-45.03948 m 0,114.85316 c -38.21809,0 -69.31897,-31.31458 -69.31897,-69.81368 0,-38.4991 31.10088,-69.81368 69.31897,-69.81368 38.21808,0 69.31896,31.31458 69.31896,69.81368 0,38.4991 -31.10088,69.81368 -69.31896,69.81368"
           id="Fill-7" />
        <path
           style="fill:#513a2b"
           d="m 12.322278,253.45321 c 6.87122,5.53291 15.464345,8.97652 24.943021,8.97652 22.187973,0 40.169578,-18.1182 40.169578,-40.46452 0,-22.34632 -17.981605,-40.45626 -40.169578,-40.45626 -5.485497,0 -10.708608,1.1231 -15.472544,3.12981 -6.141461,21.54529 -9.495075,44.27148 -9.495075,67.80697 0,0.33858 0.0246,0.6689 0.0246,1.00748"
           id="Fill-9" />
        <path
           style="fill:#513a2b"
           d="m 214.71086,121.62064 c 0,17.39149 -13.99662,31.488 -31.26487,31.488 -17.26824,0 -31.26487,-14.09651 -31.26487,-31.488 0,-17.39148 13.99663,-31.487995 31.26487,-31.487995 17.26825,0 31.26487,14.096515 31.26487,31.487995"
           id="Fill-11" />
        <path
           style="fill:#2e2e30"
           d="m 183.44845,102.51974 c -10.45442,0 -18.96555,8.57187 -18.96555,19.1009 0,10.52904 8.51113,19.10091 18.96555,19.10091 10.45442,0 18.96555,-8.57187 18.96555,-19.10091 0,-10.52903 -8.51113,-19.1009 -18.96555,-19.1009 m 0,62.976 c -24.02467,0 -43.56419,-19.67897 -43.56419,-43.8751 0,-24.196124 19.53952,-43.875092 43.56419,-43.875092 24.02467,0 43.55599,19.678968 43.55599,43.875092 0,24.19613 -19.53132,43.8751 -43.55599,43.8751"
           id="Fill-13" />
        <path
           style="fill:#513a2b"
           d="m 412.08625,335.55572 c 0,17.39148 -13.99663,31.488 -31.26487,31.488 -17.26825,0 -31.26487,-14.09652 -31.26487,-31.488 0,-17.39149 13.99662,-31.488 31.26487,-31.488 17.26824,0 31.26487,14.09651 31.26487,31.488"
           id="Fill-15" />
        <path
           style="fill:#2e2e30"
           d="m 380.8222,316.45481 c -10.45443,0 -18.96555,8.57187 -18.96555,19.10091 0,10.52903 8.51112,19.1009 18.96555,19.1009 10.45442,0 18.96555,-8.57187 18.96555,-19.1009 0,-10.52904 -8.51113,-19.10091 -18.96555,-19.10091 m 0,62.976 c -24.02467,0 -43.56419,-19.67897 -43.56419,-43.87509 0,-24.19613 19.53952,-43.8751 43.56419,-43.8751 24.02467,0 43.55599,19.67897 43.55599,43.8751 0,24.19612 -19.53132,43.87509 -43.55599,43.87509"
           id="Fill-17" />
        <path
           style="fill:#513a2b"
           d="m 256.01526,497.90266 c 7.07621,0 14.07042,-0.3551 20.99904,-0.94968 0.39358,-2.47742 0.66416,-5.00439 0.66416,-7.59742 0,-25.96335 -20.90064,-47.0049 -46.68002,-47.0049 -25.02501,0 -45.39269,19.85238 -46.55702,44.77522 22.63075,6.99459 46.66362,10.77678 71.57384,10.77678"
           id="Fill-19" />
        <path
           style="opacity:0.2;fill:#010202"
           d="m 486.30116,273.4592 c -2.99283,0 -5.90367,-0.30555 -8.75711,-0.78452 -39.8088,98.18839 -135.46471,167.424 -247.28193,167.424 -77.6661,0 -147.575433,-33.41213 -196.387334,-86.70967 38.226286,85.19845 123.280184,144.51612 222.142114,144.51612 128.09331,0 233.03111,-99.55922 242.88697,-226.01496 -4.05058,0.98271 -8.25695,1.56903 -12.60271,1.56903"
           id="Fill-3" />
        <path
           style="fill:#2e2e30"
           d="m 289.61946,482.98859 c -3.16502,-29.76206 -28.23104,-53.02503 -58.61856,-53.02503 -26.04996,0 -48.18873,17.00336 -55.9291,40.81136 C 93.453511,439.98059 33.596822,364.03943 25.569466,273.29156 c 3.820988,0.90013 7.707573,1.51948 11.700753,1.51948 28.928,0 52.468898,-23.70064 52.468898,-52.84335 0,-28.15174 -21.982985,-51.15871 -49.54986,-52.69471 C 66.780386,99.896981 125.42354,45.170787 199.44085,26.424981 c 12.39771,16.970322 31.76504,27.532387 52.85428,28.531612 -0.27059,2.683871 -0.41818,5.376001 -0.41818,8.059871 0,43.800776 35.38924,79.434326 78.87144,79.434326 3.66519,0 7.32219,-0.26426 10.95459,-0.79278 5.68229,38.912 39.43982,68.51716 79.85538,67.81523 -0.54937,3.41884 -0.81995,6.87897 -0.81995,10.34735 0,35.96387 28.70661,65.30478 64.25164,66.01497 -14.60339,101.90452 -95.44272,182.22245 -195.37059,197.15303 m -33.60994,2.52697 c -4.48515,0 -8.95391,-0.16516 -13.40626,-0.42116 -1.38572,-0.0826 -2.74685,-0.21471 -4.12437,-0.31381 -3.10763,-0.23948 -6.21526,-0.52026 -9.30649,-0.88361 -1.54971,-0.18168 -3.09942,-0.37987 -4.63274,-0.59458 -3.00923,-0.4129 -5.99387,-0.89187 -8.9785,-1.42864 -1.45132,-0.25601 -2.90264,-0.49549 -4.34576,-0.77626 -3.657,-0.72671 -7.2894,-1.55252 -10.9054,-2.45265 -0.59857,-0.14864 -1.21353,-0.26426 -1.8203,-0.42116 4.59175,-13.7249 17.44044,-23.48594 32.5112,-23.48594 17.58803,0 32.13403,13.37807 34.13471,30.5631 -3.03383,0.12387 -6.06766,0.21471 -9.12609,0.21471 M 37.270219,193.89027 c 15.36595,0 27.870258,12.59355 27.870258,28.07742 0,15.47561 -12.504308,28.06916 -27.870258,28.06916 -4.968926,0 -9.142495,-1.37084 -12.438712,-3.09677 0.114793,-4.68233 0.213188,-9.37291 0.598566,-13.99742 0.041,-0.47071 0.114794,-0.94142 0.155792,-1.41213 0.500172,-5.54942 1.221732,-11.04929 2.115483,-16.49961 0.18039,-1.09833 0.36078,-2.20491 0.549369,-3.30323 1.041343,-5.83845 2.254876,-11.6191 3.722595,-17.31716 1.738303,-0.33858 3.509405,-0.52026 5.296907,-0.52026 m 473.884591,78.96361 c 0.31978,-3.95561 -1.27913,-7.82864 -4.28837,-10.40516 -2.98463,-2.56 -7.03521,-3.52619 -10.87259,-2.60129 -3.30442,0.80929 -6.56784,1.2222 -9.69187,1.2222 -22.58975,0 -40.96493,-18.49807 -40.96493,-41.24904 0,-6.912 1.7383,-13.74967 5.02632,-19.78632 2.41067,-4.42632 1.91869,-9.89316 -1.26273,-13.79922 -3.18142,-3.91433 -8.37994,-5.48336 -13.17667,-3.98865 -5.23131,1.64335 -10.67581,2.47742 -16.1941,2.47742 -29.92015,0 -54.2646,-24.52645 -54.2646,-54.66013 0,-0.74322 0.0574,-1.47819 0.10659,-2.2049 l 0.0656,-1.11484 c 0.25418,-4.16207 -1.59892,-8.16723 -4.91153,-10.66116 -3.32082,-2.49394 -7.65838,-3.13807 -11.54496,-1.72594 -6.04307,2.20491 -12.24193,3.31974 -18.43258,3.31974 -29.92015,0 -54.2728,-24.51819 -54.2728,-54.660126 0,-5.921032 1.00854,-11.866838 3.00923,-17.672258 1.44312,-4.228129 0.51657,-8.926967 -2.42706,-12.271483 -2.96004,-3.352775 -7.46979,-4.830968 -11.82375,-3.881291 C 245.12052,33.626013 225.35961,23.947561 215.93834,6.4734968 213.33908,1.6590452 207.92738,-0.86792258 202.57308,0.27169032 109.44263,20.1984 36.630654,91.085626 10.498699,179.95066 c -0.17219,0.42116 -0.393578,0.8258 -0.5247707,1.26348 -0.3525805,1.23871 -0.5903673,2.50219 -0.9265487,3.74916 -1.0987392,4.04645 -2.1318821,8.12594 -3.0338322,12.23845 -0.36078,1.65162 -0.6559637,3.30323 -0.9839456,4.9631 -0.7789569,3.88129 -1.4677188,7.78736 -2.0662857,11.72645 -0.1885896,1.26349 -0.4099773,2.52697 -0.5821678,3.79045 -0.6805624,5.01265 -1.1971338,10.07484 -1.58251247,15.16181 -0.0983946,1.19742 -0.16399093,2.39484 -0.23778685,3.59226 -0.33618141,5.30993 -0.55756916,10.63639 -0.55756916,16.00413 0,0.0991 0.01639909,0.88361 0.02459864,1.06529 l 0,0.033 C 0.5116517,368.82085 76.48045,466.48898 180.63929,498.86885 c 0.0656,0.0248 0.12299,0.0743 0.18859,0.0991 0.74616,0.23122 1.51691,0.37987 2.26307,0.60284 4.52615,1.36258 9.1097,2.57651 13.73424,3.68309 1.45132,0.34684 2.90264,0.70194 4.35396,1.01575 5.4281,1.19741 10.9054,2.27096 16.44829,3.11329 0.52477,0.0826 1.04135,0.12387 1.56612,0.19819 5.09191,0.74323 10.24123,1.30477 15.42334,1.74245 1.45132,0.11561 2.88624,0.23123 4.33756,0.33032 5.64129,0.37162 11.32358,0.63588 17.05506,0.63588 3.657,0 7.35499,-0.0991 11.15138,-0.27252 2.78785,-0.12387 5.5429,-0.33858 8.30614,-0.55329 0.87736,-0.0661 1.70551,-0.0908 2.59926,-0.17342 0.0328,0 0.0656,-0.0165 0.0984,-0.0248 122.8128,-10.83456 223.20805,-110.75714 232.99011,-236.41185"
           id="Fill-21" />
      </g>
    </g>
  </g>
</svg>
