<svg xmlns="http://www.w3.org/2000/svg" viewBox="0 0 250 250" width="250" height="250">
	<defs>
	</defs>
	<g id="Layer">
		<path id="Layer" style="fill: #295298" d="M125,30v0v0l-93.1,33.2l14.2,123.1l78.9,43.7v0v0l78.9,-43.7l14.2,-123.1z" />
		<path id="Layer" style="fill: #003399" d="M125,30v22.2v-0.1v101.3v0v76.6v0l78.9,-43.7l14.2,-123.1z" />
		<path id="path3425" style="fill: #ffffff" d="M124.51,58.51c0.03,-0.02 0.05,-0.02 0.07,0c0.14,0.15 0.62,1.39 1.06,2.74l0.8,2.46h5.89l-2.41,1.82l-2.41,1.82l0.89,2.62c0.49,1.44 0.85,2.67 0.79,2.72c-0.06,0.06 -1.15,-0.63 -2.43,-1.52l-2.32,-1.62l-2.32,1.65c-1.27,0.91 -2.32,1.51 -2.32,1.33c0,-0.18 0.33,-1.28 0.73,-2.45c0.4,-1.17 0.73,-2.31 0.73,-2.55c0,-0.23 -1,-1.16 -2.23,-2.04l-2.23,-1.61l5.8,-0.21l0.86,-2.73c0.41,-1.31 0.85,-2.32 1.04,-2.45zM156.18,67.28l0.7,2.46l3.09,0.18l3.09,0.18l-2.26,1.64c-1.24,0.9 -2.27,1.89 -2.28,2.19c-0.01,0.3 0.29,1.53 0.67,2.74c0.38,1.2 0.64,2.24 0.59,2.29c-0.05,0.06 -1.1,-0.59 -2.32,-1.43l-2.22,-1.53l-2.11,1.43c-2.55,1.73 -2.83,1.86 -2.58,1.21v0c0.11,-0.28 0.5,-1.47 0.87,-2.66l0.68,-2.15l-1.42,-1.13c-0.78,-0.62 -1.85,-1.49 -2.37,-1.94l-0.94,-0.81l2.99,-0.01l2.99,-0.01l0.82,-2.55c0.45,-1.41 0.93,-2.55 1.06,-2.55c0.13,0 0.56,1.11 0.94,2.46zM93.86,65.08c0.03,-0.02 0.05,-0.02 0.07,0c0.14,0.15 0.61,1.38 1.05,2.73l0.8,2.45l2.79,0.11l2.79,0.11l-2.23,1.65l-2.23,1.65l0.83,2.63c0.46,1.45 0.76,2.63 0.66,2.63c-0.1,0 -1.11,-0.66 -2.26,-1.46c-1.14,-0.8 -2.21,-1.46 -2.36,-1.46c-0.15,0 -1.16,0.66 -2.25,1.46c-2.05,1.51 -2.37,1.67 -2.37,1.15c0,-0.17 0.33,-1.26 0.73,-2.43c0.4,-1.17 0.73,-2.24 0.73,-2.39c0,-0.15 -1.02,-1.03 -2.26,-1.95l-2.26,-1.68h5.85l0.86,-2.74c0.41,-1.32 0.85,-2.33 1.05,-2.46zM118.38,82.62c2.37,2.47 3.51,3.02 6.78,3.27c1.49,0.11 2.82,0.39 2.97,0.61c0.14,0.22 0.26,2.06 0.26,4.08c0,3.45 0.07,3.79 1.1,5.46c1.32,2.14 3.67,4.01 5.72,4.57c0.93,0.25 2.64,0.31 4.54,0.15l3.04,-0.25l0.37,0.98c0.2,0.54 0.37,1.43 0.37,1.98c0,1.58 1.01,4.16 2.21,5.6c0.6,0.73 2,1.77 3.1,2.31c1.7,0.83 2.52,0.99 5.34,1.03c4,0.05 4.37,0.35 3.67,2.96c-1.68,6.29 1.6,10.37 8.37,10.4c1.2,0.01 1.76,0.18 1.92,0.59c0.92,2.4 -1.22,11.4 -4.07,17.11c-2.08,4.16 -4.43,7.44 -8.02,11.18c-6.77,7.06 -15.31,11.49 -24.91,12.94c-3.17,0.48 -9.06,0.63 -11.31,0.29c-10.08,-1.51 -17.93,-5.21 -24.82,-11.69c-6.24,-5.87 -10.51,-13.15 -12.79,-21.83c-1.11,-4.21 -1.39,-13.38 -0.54,-17.88c2.9,-15.54 13.05,-27.96 27.47,-33.62c1.73,-0.68 4.1,-1.43 5.29,-1.68l2.15,-0.44zM110.3,86.38c-8.4,3.24 -16.55,10.54 -20.76,18.61c-2.51,4.79 -2.5,4.59 -0.19,5.32c3.95,1.25 6.38,4.46 6.37,8.42c-0.01,2.59 -0.87,4.56 -2.78,6.38c-1.71,1.63 -2.69,2.03 -5.78,2.34l-2.37,0.24l0.21,1.5c0.39,2.79 1.9,8.05 3.15,11.01c2.67,6.32 7.72,12.47 13.96,17c1.99,1.45 7.53,4.33 8.32,4.33c0.27,0 1.01,-0.8 1.65,-1.78c2.56,-3.96 6.97,-5.66 11.44,-4.41c2.61,0.73 5.94,4.43 6.66,7.43c0.24,1.02 0.31,1.04 1.97,0.84c0.94,-0.12 3.03,-0.64 4.63,-1.17c10.32,-3.39 19.01,-10.87 23.87,-20.54c1.48,-2.95 3.21,-8.12 3.53,-10.57c0.23,-1.74 0.19,-1.92 -0.46,-1.92c-1.85,0 -4.52,-1.19 -6.34,-2.82c-2.33,-2.09 -3.52,-4.51 -3.84,-7.79l-0.24,-2.43l-1.87,-0.22c-2.79,-0.33 -6.08,-2.11 -8.21,-4.44c-1.6,-1.75 -2.27,-3.01 -3.51,-6.61c-0.08,-0.24 -1.27,-0.48 -2.81,-0.56c-6.62,-0.36 -11.44,-5.08 -12.44,-12.2c-0.31,-2.23 -0.5,-2.71 -1.04,-2.71c-1.44,0 -4.67,-1.55 -6.52,-3.13c-1.1,-0.94 -1.62,-1.41 -2.42,-1.43c-0.81,-0.02 -1.91,0.42 -4.18,1.3zM72.73,87.44c0.12,0 0.59,1.14 1.04,2.54l0.82,2.54l2.97,0.11l2.97,0.11l-2.26,1.64c-1.24,0.9 -2.26,1.82 -2.26,2.04c0,0.22 0.33,1.35 0.73,2.52c0.4,1.17 0.73,2.28 0.73,2.46c0,0.19 -1.07,-0.42 -2.37,-1.35l-2.37,-1.69l-1.92,1.41c-2.67,1.95 -3,2.14 -2.76,1.51c0.11,-0.28 0.48,-1.5 0.83,-2.7l0.63,-2.18l-1.22,-1.11c-0.67,-0.61 -1.71,-1.47 -2.31,-1.92l-1.09,-0.81l2.99,-0.01l2.99,-0.01l0.82,-2.55c0.45,-1.41 0.92,-2.55 1.04,-2.55zM177.33,90.11l0.76,2.26l3.03,0.11l3.03,0.11l-2.24,1.63c-1.23,0.9 -2.24,1.89 -2.24,2.21c0,0.32 0.26,1.48 0.58,2.58c0.32,1.1 0.5,2.08 0.39,2.19c-0.1,0.1 -1.1,-0.5 -2.21,-1.34c-1.27,-0.96 -2.19,-1.42 -2.49,-1.24c-0.26,0.15 -1.33,0.91 -2.39,1.69c-1.05,0.77 -1.92,1.25 -1.92,1.07c0,-0.19 0.34,-1.44 0.75,-2.78c0.85,-2.76 1.09,-2.26 -2.17,-4.66l-1.6,-1.18l2.9,-0.11l2.9,-0.11l0.83,-2.57c0.46,-1.41 0.94,-2.46 1.07,-2.33c0.13,0.13 0.59,1.25 1,2.49zM119.45,101.4c0,2.17 -0.5,3.45 -1.94,4.97c-2.34,2.48 -6.19,3.03 -8.89,1.28c-2.28,-1.48 -3.41,-3.48 -3.41,-6.06c0,-3.67 1.96,-6.28 5.39,-7.19c0.55,-0.15 1.1,-0.22 1.64,-0.22c3.79,-0.04 7.21,3.17 7.21,7.23zM109.42,99.84c-0.75,1.45 -0.69,2.28 0.23,3.46c1.37,1.74 3.31,1.99 4.83,0.63c1.7,-1.53 1.44,-4.35 -0.51,-5.36c-0.73,-0.38 -1.42,-0.55 -2.05,-0.52c-1.04,0.05 -1.91,0.66 -2.5,1.8zM85.64,115.89c-0.52,2.31 -0.73,6.64 -0.35,7.26c0.42,0.68 3.12,0.49 4.42,-0.31c3.96,-2.45 2.34,-8.76 -2.29,-8.9c-1.33,-0.04 -1.34,-0.03 -1.79,1.95zM185.46,121.46l0.92,2.81l2.94,0.11l2.94,0.1l-2.19,1.61c-1.2,0.88 -2.23,1.64 -2.28,1.67c-0.05,0.03 0.25,1.26 0.65,2.73c0.41,1.47 0.69,2.7 0.63,2.75c-0.06,0.04 -1,-0.55 -2.08,-1.32c-1.09,-0.77 -2.22,-1.4 -2.51,-1.4c-0.29,0 -1.31,0.57 -2.27,1.28c-2.54,1.86 -2.53,1.89 -1.3,-2.1l0.53,-1.73l-2.39,-1.81l-2.39,-1.81l3.02,-0.11l3.02,-0.11l0.92,-2.74l0.91,-2.74zM65.07,121.55l0.86,2.75h2.86c1.57,0 2.86,0.13 2.86,0.29c0,0.16 -0.45,0.56 -1,0.89c-0.55,0.33 -1.54,1.06 -2.2,1.63l-1.19,1.03l0.73,2.37c0.4,1.3 0.73,2.5 0.73,2.66c0,0.16 -1.04,-0.45 -2.31,-1.36l-2.32,-1.65l-2.15,1.63c-1.18,0.89 -2.27,1.63 -2.4,1.64c-0.14,0 0.15,-1.17 0.63,-2.6c1.02,-2.99 1.05,-2.89 -1.91,-4.93l-2.04,-1.4l3.03,-0.18l3.03,-0.18l0.96,-2.66l0.96,-2.66zM122.06,121.86c2.47,1.21 4.44,3.29 5.68,5.98c0.78,1.71 0.89,2.39 0.78,4.97c-0.15,3.51 -1.02,5.6 -3.28,7.93c-2.74,2.82 -7.36,4.16 -10.92,3.16c-3.77,-1.06 -6.29,-3.22 -7.96,-6.82c-2.59,-5.6 0.22,-12.75 6.09,-15.45c1.31,-0.61 3.03,-0.88 4.77,-0.84c1.73,0.04 3.48,0.4 4.85,1.07zM116.68,124.72c-5.53,0.28 -9.17,6.02 -6.68,11.16c2,4.13 7.02,5.61 11.03,3.26c6.37,-3.73 4.12,-13.79 -3.22,-14.39c-0.38,-0.03 -0.76,-0.04 -1.13,-0.02zM153.49,138.41c0,3.96 -3.14,7.09 -7.07,7.04c-1.09,-0.01 -2.38,-0.19 -2.89,-0.39c-2.38,-0.95 -4.38,-4.03 -4.38,-6.76c0,-4.06 2.99,-7.06 7.02,-7.06c4.39,0 7.32,2.86 7.32,7.17zM143.19,137.2c-0.5,1.52 -0.09,2.77 1.28,3.84c1.16,0.91 2.01,0.98 3.41,0.25c1.88,-0.97 2.33,-3.77 0.87,-5.39c-0.57,-0.63 -1.39,-0.92 -2.24,-0.92c-1.4,0.01 -2.86,0.83 -3.32,2.22zM72.35,148.24c0.11,0.11 0.55,1.22 0.96,2.46l0.76,2.25l2.61,0.21c1.43,0.11 2.7,0.29 2.81,0.4c0.11,0.11 -0.71,0.89 -1.82,1.72c-1.11,0.84 -2.01,1.72 -2.01,1.97c0,0.24 0.31,1.43 0.69,2.63c0.38,1.2 0.63,2.24 0.57,2.31c-0.06,0.07 -1.11,-0.58 -2.33,-1.44l-2.22,-1.56l-2.17,1.53c-2.01,1.42 -2.57,1.73 -2.57,1.41c0,-0.07 0.33,-1.08 0.73,-2.25c0.4,-1.17 0.73,-2.34 0.73,-2.61c0,-0.27 -0.98,-1.21 -2.18,-2.09c-1.95,-1.43 -2.09,-1.62 -1.37,-1.82c0.44,-0.12 1.74,-0.22 2.89,-0.22l2.08,-0.01l0.82,-2.55c0.45,-1.4 0.91,-2.46 1.03,-2.35zM177.69,150.7l0.76,2.25l2.61,0.21c1.43,0.11 2.71,0.3 2.83,0.42c0.12,0.12 -0.76,0.91 -1.96,1.75l-2.18,1.54l0.83,2.7c0.46,1.48 0.75,2.69 0.65,2.69c-0.1,0 -1.15,-0.68 -2.33,-1.51l-2.15,-1.51l-2.1,1.42c-2.49,1.69 -2.65,1.76 -2.65,1.33c0,-0.19 0.33,-1.29 0.73,-2.46c0.4,-1.17 0.73,-2.24 0.73,-2.39c0,-0.15 -1,-1.01 -2.22,-1.92l-2.22,-1.65l2.95,-0.26l2.94,-0.26l0.81,-2.5c0.44,-1.37 0.9,-2.41 1.01,-2.3c0.11,0.11 0.55,1.21 0.96,2.46zM116.98,160.05c-1.5,1.08 -2.25,2.4 -1.67,2.94c0.93,0.88 11.08,1.51 11.08,0.69c0,-0.22 -0.27,-0.97 -0.6,-1.66c-0.92,-1.94 -2.99,-3.06 -5.12,-3.1c-1.28,-0.03 -2.58,0.33 -3.68,1.13zM94.71,169.41c0.11,0.18 0.48,1.24 0.84,2.34c0.35,1.1 0.81,2.21 1.01,2.46c0.23,0.29 1.33,0.46 2.96,0.47l2.6,0.02l-1.26,0.99c-0.69,0.54 -1.67,1.33 -2.17,1.76l-0.91,0.77l0.78,2.68c0.43,1.48 0.75,2.71 0.71,2.74c-0.04,0.03 -0.89,-0.57 -1.9,-1.35c-1,-0.78 -2.11,-1.51 -2.45,-1.62c-0.39,-0.13 -1.39,0.36 -2.67,1.31c-1.13,0.83 -2.11,1.45 -2.19,1.37c-0.08,-0.08 0.18,-1.17 0.58,-2.44c0.39,-1.26 0.71,-2.44 0.71,-2.62c0,-0.18 -0.93,-1.03 -2.07,-1.88l-2.07,-1.56l2.71,-0.18l2.71,-0.18l0.95,-2.71c0.45,-1.3 0.9,-2.28 1.08,-2.38c0.03,-0.01 0.05,-0.01 0.06,0.01zM154.44,169.44c0.03,-0.01 0.05,-0.01 0.07,0.01c0.14,0.16 0.55,1.19 0.9,2.29c0.35,1.1 0.8,2.21 1,2.46c0.23,0.29 1.35,0.46 3.1,0.46h2.73l-2.23,1.64c-1.23,0.9 -2.23,1.86 -2.23,2.13c0,0.27 0.33,1.45 0.73,2.62c0.4,1.17 0.65,2.2 0.56,2.3c-0.1,0.1 -1.08,-0.51 -2.18,-1.34c-1.1,-0.83 -2.15,-1.51 -2.32,-1.51c-0.18,0 -1.24,0.66 -2.36,1.46c-1.12,0.8 -2.13,1.46 -2.23,1.46c-0.11,0 0.05,-0.78 0.35,-1.73c1.14,-3.65 1.17,-3.5 -1.15,-5.25l-2.11,-1.59l2.59,-0.11c1.48,-0.06 2.73,-0.3 2.92,-0.55c0.18,-0.24 0.64,-1.47 1.01,-2.73c0.32,-1.1 0.68,-1.93 0.87,-2.02zM124.91,178.88c0.18,0.1 0.62,1.08 1.08,2.38l0.95,2.71l2.85,0.11l2.85,0.11l-2.21,1.63c-1.21,0.89 -2.21,1.77 -2.21,1.94c0,0.17 0.33,1.27 0.73,2.45c0.4,1.18 0.69,2.27 0.64,2.43c-0.05,0.16 -1,-0.36 -2.1,-1.16c-1.1,-0.8 -2.16,-1.45 -2.36,-1.46c-0.19,-0.01 -1.29,0.64 -2.43,1.45c-1.14,0.8 -2.16,1.46 -2.26,1.46c-0.1,0 0.13,-1 0.51,-2.22c0.38,-1.22 0.69,-2.51 0.69,-2.86c0,-0.36 -0.89,-1.25 -2.08,-2.07l-2.08,-1.43l2.78,-0.11l2.78,-0.11l0.8,-2.45c0.44,-1.35 0.89,-2.6 1,-2.78c0.01,-0.02 0.03,-0.03 0.06,-0.01z" />
	</g>
</svg>