<?xml version="1.0" encoding="UTF-8" standalone="no"?>
<svg
   xmlns:dc="http://purl.org/dc/elements/1.1/"
   xmlns:cc="http://creativecommons.org/ns#"
   xmlns:rdf="http://www.w3.org/1999/02/22-rdf-syntax-ns#"
   xmlns:svg="http://www.w3.org/2000/svg"
   xmlns="http://www.w3.org/2000/svg"
   viewBox="0 0 1280 855"
   height="855"
   width="1280"
   version="1.1"
   id="svg3410">
  <metadata
     id="metadata3416">
    <rdf:RDF>
      <cc:Work
         rdf:about="">
        <dc:format>image/svg+xml</dc:format>
        <dc:type
           rdf:resource="http://purl.org/dc/dcmitype/StillImage" />
        <dc:title></dc:title>
      </cc:Work>
    </rdf:RDF>
  </metadata>
  <defs
     id="defs3414" />
  <style
     type="text/css"
     id="style3473">
	.st0{fill:#DD0031;}
	.st1{fill:#C3002F;}
	.st2{fill:#FFFFFF;}
</style>
  <g
     transform="translate(278.56648,8.7929375)"
     id="g3703">
    <path
       style="fill:#295298"
       d="m 275.15142,308.34298 0,90.78906 0,90.78906 135.91602,0 135.91797,0 0,-90.78906 0,-90.78906 -135.91797,0 -135.91602,0 z"
       id="path3700" />
    <path
       style="fill:#ffffff"
       d="m 414.80859,328.63867 c -0.0152,0 -0.0774,0.12592 -0.13867,0.28125 -0.14021,0.35512 -1.07264,3.17877 -1.5039,4.55274 l -0.32618,1.03515 -2.51367,0.0254 c -2.75487,0.0274 -3.66406,0.0735 -3.66406,0.1836 0,0.0725 1.39052,1.11488 3.71289,2.7832 0.65614,0.47135 1.19496,0.87538 1.19531,0.89648 0.002,0.10592 -1.81286,5.52296 -2.00781,5.99414 -0.0273,0.0661 -0.0206,0.0685 0.0645,0.0234 0.19111,-0.10128 0.83198,-0.54776 2.17774,-1.51367 1.44247,-1.03532 2.54292,-1.78913 2.84961,-1.95117 l 0.17968,-0.0937 0.33594,0.21094 c 0.49046,0.30855 1.52791,1.04227 2.75,1.94336 1.45257,1.07105 1.73468,1.23303 1.83008,1.05468 0.0962,-0.17966 -0.0491,-0.6912 -0.99609,-3.49414 -0.39445,-1.16756 -0.71585,-2.14297 -0.71485,-2.16797 0.001,-0.025 0.62547,-0.49272 1.38867,-1.03906 1.52106,-1.08886 3.02866,-2.20368 3.35743,-2.48437 l 0.21093,-0.17969 -0.11328,-0.0312 c -0.27861,-0.0746 -1.45968,-0.11968 -3.69336,-0.14258 l -2.41406,-0.0254 -0.56836,-1.79102 c -0.85755,-2.69658 -1.33034,-4.07031 -1.39844,-4.07031 z m 30.73047,6.31055 c -0.011,0 -0.45717,1.31059 -0.99023,2.91211 -0.53306,1.60152 -0.97347,2.91778 -0.98047,2.92578 -0.0133,0.0155 -2.13028,0.0885 -4.69141,0.16211 -0.86772,0.025 -1.61691,0.0581 -1.66601,0.0723 -0.0761,0.022 0.10519,0.16478 1.22656,0.97461 2.19904,1.5881 3.67432,2.71257 3.76172,2.86719 0.0367,0.0649 -0.1807,0.76366 -1.14258,3.66797 -0.40566,1.22487 -0.73828,2.24658 -0.73828,2.27148 0,0.0864 0.28431,-0.10396 1.9668,-1.32421 1.54529,-1.12074 1.91285,-1.37591 2.49414,-1.73438 0.60492,-0.37299 0.81067,-0.4633 0.92382,-0.4043 0.17581,0.0916 1.19992,0.80419 2.36719,1.64649 1.72461,1.24448 2.50994,1.78864 2.52344,1.74805 0.0166,-0.0497 -0.38569,-1.37489 -1.16602,-3.84376 l -0.66406,-2.0996 0.0918,-0.0723 c 0.22384,-0.17545 1.51996,-1.12353 3.2168,-2.35352 l 1.84179,-1.33398 -0.16601,-0.0215 c -0.0911,-0.0111 -1.38401,-0.0557 -2.87305,-0.0996 -1.48904,-0.0439 -2.87606,-0.0908 -3.08203,-0.10352 l -0.37305,-0.0215 -0.93164,-2.91797 c -0.51157,-1.60478 -0.93822,-2.91797 -0.94922,-2.91797 z m -61.37695,0.0781 c -0.0134,-0.0321 -0.48524,1.31618 -1.04688,2.99805 l -1.02148,3.05859 -0.54102,0.0274 c -0.29823,0.0144 -1.67317,0.0458 -3.05468,0.0703 -1.38151,0.0245 -2.51358,0.0468 -2.51758,0.0508 -0.004,0.004 0.79331,0.59056 1.77148,1.30274 0.97817,0.71218 2.0664,1.51926 2.41993,1.79492 0.58559,0.45666 0.64367,0.51331 0.63867,0.61914 -0.006,0.12976 -0.66396,2.21503 -1.37696,4.36523 -0.25787,0.77764 -0.46875,1.43951 -0.46875,1.47071 0,0.0311 0.0163,0.0566 0.0371,0.0566 0.0615,0 0.84069,-0.54039 2.06641,-1.43555 1.7481,-1.27667 2.81025,-2.03356 2.95117,-2.10156 l 0.12695,-0.0605 0.47657,0.32227 c 0.2621,0.17797 0.8597,0.59859 1.32617,0.93359 2.26999,1.63024 3.23934,2.29917 3.27734,2.25977 0.0288,-0.0298 -0.41771,-1.4729 -1.08594,-3.50196 -0.37747,-1.14624 -0.69573,-2.15258 -0.70703,-2.23828 l -0.0215,-0.15625 0.42187,-0.33594 c 0.56592,-0.45069 1.26855,-0.96957 3.0254,-2.23046 0.90426,-0.64899 1.44624,-1.06041 1.40234,-1.06641 -0.0393,-0.005 -1.42922,-0.0359 -3.08789,-0.0684 -1.65867,-0.0324 -3.0213,-0.0643 -3.0293,-0.0723 -0.008,-0.008 -0.45135,-1.36233 -0.98633,-3.00976 -0.53498,-1.64744 -0.98279,-3.02064 -0.99609,-3.05274 z m -21.10352,22.37891 -1,3 -1,2.99805 -2.19726,0.0449 c -1.20876,0.0246 -2.61352,0.0468 -3.1211,0.0488 -0.50758,0.002 -0.9307,0.0178 -0.9414,0.0352 -0.0107,0.0174 0.61521,0.49555 1.39062,1.06055 2.58296,1.88206 3.60938,2.66123 3.60938,2.74023 0,0.0405 -0.35772,1.14551 -0.79492,2.45508 -0.79712,2.38759 -0.94745,2.90215 -0.90235,3.08203 0.0337,0.13413 0.14059,0.12609 0.4375,-0.0371 0.26853,-0.1476 0.46244,-0.28644 2.875,-2.04687 0.89553,-0.65347 1.6402,-1.18564 1.6543,-1.18164 0.0141,0.004 0.83167,0.59273 1.81641,1.30859 0.98474,0.71587 2.12305,1.53254 2.52929,1.81446 0.69917,0.4848 0.79883,0.54718 0.79883,0.48828 0,-0.0599 -0.43257,-1.42851 -0.94922,-3.00196 -0.6421,-1.9555 -0.90124,-2.8246 -0.86914,-2.9082 0.0654,-0.17055 1.30016,-1.11539 3.43555,-2.62891 0.857,-0.60743 1.56236,-1.11651 1.56836,-1.13281 0.006,-0.0163 -0.42216,-0.0436 -0.95313,-0.0586 -0.7758,-0.0219 -2.1647,-0.0664 -5.41406,-0.17774 -0.004,-1.2e-4 -0.4473,-1.32822 -0.98828,-2.95117 l -0.98438,-2.95117 z m 103.56446,0.19531 -0.13867,0.29883 c -0.27955,0.60278 -0.59405,1.51584 -1.58399,4.61523 l -0.27539,0.86329 -0.28125,0.0215 c -0.15499,0.0121 -1.5541,0.0435 -3.10742,0.0684 -1.55332,0.0249 -2.83642,0.0571 -2.85352,0.0723 -0.0171,0.0152 0.62101,0.49981 1.41992,1.07617 1.62521,1.17249 2.47902,1.8188 3.04102,2.30273 0.4303,0.37052 0.42801,0.36336 0.29883,0.80469 -0.25571,0.8736 -0.80912,2.62021 -1.26563,3.99219 -0.28763,0.8644 -0.52343,1.57889 -0.52343,1.58789 0,0.0396 0.24433,-0.11592 0.6621,-0.42188 0.2464,-0.18045 1.37721,-1.0087 2.51172,-1.83984 1.79782,-1.3171 2.07167,-1.5062 2.13477,-1.4668 0.0398,0.0249 0.70703,0.51435 1.48242,1.08789 1.93821,1.43367 3.33534,2.42188 3.42774,2.42188 0.0145,0 0.0273,-0.0358 0.0273,-0.0781 0,-0.10749 -0.36405,-1.35203 -0.81836,-2.80469 -0.54101,-1.72984 -0.85742,-2.83299 -0.85742,-2.98437 0,-0.0819 1.10184,-0.90674 3.81055,-2.85547 0.60652,-0.43634 1.08761,-0.80656 1.07031,-0.82226 -0.0173,-0.0157 -1.42367,-0.0512 -3.12696,-0.0781 -1.70329,-0.0269 -3.10432,-0.0546 -3.11132,-0.0606 -0.007,-0.006 -0.27386,-0.83078 -0.5918,-1.83398 -0.62382,-1.96827 -1.12115,-3.45299 -1.26367,-3.76953 l -0.0879,-0.19727 z m 8.27734,31.86524 -0.17187,0.35742 c -0.24994,0.52107 -0.5336,1.31607 -1.22266,3.43164 -0.33704,1.03478 -0.61895,1.88848 -0.62695,1.89648 -0.008,0.008 -1.38191,0.0598 -3.05274,0.11524 -1.67083,0.0554 -3.08116,0.10633 -3.13476,0.11133 -0.077,0.007 0.17975,0.20682 1.22656,0.95898 1.95932,1.40783 2.83575,2.07619 3.38281,2.57617 0.218,0.19927 0.22808,0.21392 0.20508,0.35742 -0.0315,0.19684 -0.26832,0.95804 -0.88672,2.85547 -0.4971,1.52522 -0.85156,2.69235 -0.85156,2.8086 0,0.0681 -0.0137,0.0749 0.44922,-0.23438 0.40058,-0.26767 1.04883,-0.73042 2.76562,-1.97656 0.66418,-0.4821 1.31562,-0.95328 1.44922,-1.04688 l 0.24414,-0.16992 0.40039,0.19922 c 0.50541,0.25184 1.17873,0.69385 2.50586,1.64649 1.21034,0.86881 2.28139,1.60337 2.30469,1.58007 0.0269,-0.0269 -0.21212,-0.88116 -0.5625,-2.00976 -0.81107,-2.61254 -1.02906,-3.40918 -1.03906,-3.8125 l -0.006,-0.25 1.24804,-0.89453 c 0.68561,-0.49198 1.77723,-1.27929 2.42774,-1.74805 l 1.18359,-0.85156 -0.59765,-0.002 c -1.15748,-0.004 -5.68388,-0.10184 -5.70508,-0.12304 -0.0118,-0.0118 -0.24035,-0.72018 -0.50782,-1.57422 -0.5889,-1.88048 -1.18027,-3.65765 -1.32226,-3.9707 l -0.10547,-0.23047 z m -120.37109,0.084 c -0.07,0.0433 -0.41121,0.80875 -0.66407,1.49219 -0.13873,0.37494 -0.50969,1.45378 -0.82617,2.39648 -0.31648,0.9427 -0.57808,1.71671 -0.58008,1.72071 -0.002,0.004 -1.37905,0.0521 -3.06054,0.10742 -1.68149,0.0553 -3.10291,0.10437 -3.15821,0.10937 -0.0809,0.007 0.1841,0.21548 1.36133,1.0625 1.95697,1.40806 3.10351,2.29062 3.42969,2.64258 l 0.0937,0.10156 -0.16797,0.57618 c -0.0921,0.31622 -0.3639,1.1788 -0.60547,1.91796 -0.69121,2.11503 -0.99187,3.1039 -0.99218,3.26368 -10e-5,0.0268 0.0115,0.0488 0.0254,0.0488 0.0856,0 2.10553,-1.42753 4.09375,-2.89257 l 0.94531,-0.69532 1.54687,1.12305 c 2.55652,1.85526 3.44756,2.46846 3.50586,2.41016 0.0311,-0.0311 -0.33235,-1.2696 -0.80859,-2.75196 -0.47617,-1.4821 -0.73441,-2.35017 -0.83789,-2.82031 l -0.0664,-0.30859 0.11133,-0.0918 c 0.42347,-0.34593 2.1512,-1.61341 4.42578,-3.24609 0.25072,-0.17997 0.45127,-0.32999 0.44727,-0.33399 -0.004,-0.004 -1.314,-0.0285 -2.91016,-0.0547 -1.59617,-0.0262 -3.02323,-0.0587 -3.17187,-0.0723 l -0.26954,-0.0254 -0.58984,-1.84961 c -0.97939,-3.07727 -1.23814,-3.85428 -1.27734,-3.83008 z m 8.09375,28.61328 c -0.006,0.007 -0.4343,1.32672 -0.95313,2.9336 -0.51884,1.60688 -0.94998,2.9285 -0.95898,2.9375 -0.0155,0.0162 -3.02594,0.12098 -5.15821,0.17968 -0.54634,0.015 -1.05847,0.0393 -1.13867,0.0527 l -0.14648,0.0234 1.62695,1.17773 c 1.64369,1.19029 2.48398,1.83589 3.02735,2.32422 0.46249,0.41566 0.448,0.35636 0.24023,0.98633 -0.0974,0.29529 -0.4755,1.48367 -0.83984,2.64062 -0.36435,1.15696 -0.69839,2.20744 -0.74219,2.33399 -0.0438,0.12655 -0.0781,0.23714 -0.0781,0.24414 0,0.0368 0.10996,0.003 0.22461,-0.0664 0.0707,-0.0431 0.76874,-0.54417 1.55078,-1.11328 2.07174,-1.50767 2.84266,-2.0157 3.33594,-2.20313 l 0.19922,-0.0762 0.49023,0.33008 c 0.27001,0.18173 1.06898,0.74599 1.77539,1.25391 1.17272,0.84319 2.32983,1.65654 2.59961,1.82812 0.0601,0.0382 0.10743,0.0509 0.10743,0.0274 0,-0.0872 -0.40334,-1.37446 -0.9668,-3.08399 -0.67073,-2.03498 -0.86328,-2.64678 -0.86328,-2.73828 0,-0.1241 1.31419,-1.14507 3.90234,-3.02734 l 1.15235,-0.83789 -0.22071,-0.0274 c -0.12081,-0.0156 -1.43674,-0.0638 -2.92578,-0.10742 -1.48905,-0.0437 -2.83416,-0.0894 -2.98828,-0.10156 l -0.2793,-0.0234 -0.98047,-2.93945 c -0.53908,-1.61722 -0.98618,-2.93474 -0.99218,-2.92774 z m 104.35742,0.002 c -0.005,0.005 -0.43228,1.32476 -0.95117,2.93164 -0.51889,1.60688 -0.95867,2.94852 -0.97657,2.98242 -0.0289,0.0547 -0.36162,0.0669 -2.94726,0.11133 -1.60268,0.0275 -3.04326,0.0626 -3.20313,0.0762 l -0.29101,0.0234 1.14648,0.83593 c 2.83829,2.06704 3.89453,2.88471 3.89453,3.01758 0,0.10843 -0.67458,2.24781 -1.3457,4.26563 -0.28801,0.86596 -0.52344,1.58962 -0.52344,1.60742 0,0.0178 0.0141,0.0312 0.0332,0.0312 0.0687,0 0.75155,-0.47185 2.14843,-1.48633 2.10503,-1.52878 2.88184,-2.05859 3.01758,-2.05859 0.0808,0 1.31004,0.83408 2.5918,1.75781 1.61328,1.16265 2.46127,1.75357 2.48437,1.73047 0.0279,-0.0279 -0.38893,-1.39965 -1.25586,-4.12696 -0.31283,-0.98418 -0.56273,-1.81219 -0.55273,-1.83789 0.0181,-0.0473 1.17535,-0.89724 3.69727,-2.7207 0.76626,-0.55403 1.38424,-1.01614 1.37304,-1.02734 -0.0112,-0.0112 -1.45781,-0.0677 -3.21484,-0.125 -1.75703,-0.0573 -3.20103,-0.11014 -3.20703,-0.11914 -0.006,-0.009 -0.439,-1.33529 -0.96094,-2.94727 -0.52195,-1.61198 -0.95203,-2.92687 -0.95703,-2.92187 z m -22.2207,21.45312 c -0.0757,0 -0.48287,1.16344 -1.28711,3.67774 -0.36242,1.13303 -0.66293,2.06526 -0.66993,2.07226 -0.007,0.007 -1.42277,0.0395 -3.14453,0.0723 -1.72175,0.0328 -3.13367,0.0643 -3.13867,0.0703 -0.005,0.006 1.11869,0.83282 2.49805,1.83789 1.37937,1.00507 2.50781,1.83872 2.50781,1.85351 0,0.0148 -0.0886,0.30588 -0.19727,0.64649 -0.8958,2.80864 -1.4718,4.70106 -1.5371,5.05078 -0.0177,0.0947 -0.0114,0.14649 0.0156,0.14649 0.0983,0 1.648,-1.07942 3.98828,-2.77735 l 1.00196,-0.72851 0.96484,0.70898 c 0.53061,0.38999 1.68226,1.23276 2.55859,1.87109 0.87632,0.63833 1.60133,1.15258 1.61133,1.14258 0.01,-0.01 -0.01,-0.10193 -0.043,-0.20508 -1.28656,-4.00784 -1.74028,-5.5313 -1.73828,-5.83593 7.2e-4,-0.10418 0.0521,-0.15448 0.47656,-0.46485 0.26185,-0.19149 1.40456,-1.02536 2.53907,-1.85156 l 2.0625,-1.50195 -3.25196,-0.01 -3.25,-0.01 -0.38672,-1.25586 c -0.49016,-1.59224 -0.94814,-3.00449 -1.15234,-3.55469 -0.18494,-0.49835 -0.38913,-0.95508 -0.42773,-0.95508 z m -59.91211,0.0254 c -0.0968,0.0996 -0.80218,2.16932 -1.58008,4.63672 l -0.3457,1.0957 -1.13086,0.0254 c -0.62209,0.0136 -2.03296,0.0414 -3.13477,0.0625 -1.10181,0.0211 -2.00767,0.0428 -2.01367,0.0488 -0.008,0.008 4.7275,3.48358 4.97656,3.65235 0.017,0.0115 -0.19772,0.7376 -0.47656,1.61523 -0.81461,2.56388 -1.31168,4.24887 -1.26758,4.29297 0.0416,0.0416 2.11375,-1.40827 4.62109,-3.23242 l 0.40821,-0.29688 0.18164,0.13086 c 0.2752,0.19771 4.37911,3.19806 4.66992,3.41406 0.28619,0.21229 0.32846,0.22637 0.28906,0.10157 -0.0152,-0.0482 -0.2722,-0.84926 -0.57031,-1.78125 -0.77378,-2.41912 -1.11839,-3.5888 -1.21289,-4.11524 -0.0124,-0.0691 -0.001,-0.14754 0.0254,-0.18164 0.0474,-0.061 0.92398,-0.70587 3.58398,-2.63867 l 1.47071,-1.07031 -3.25,-0.01 -3.25196,-0.01 -0.0391,-0.12696 c -0.0218,-0.0695 -0.277,-0.88832 -0.5664,-1.82031 -0.28941,-0.93199 -0.60538,-1.92265 -0.70118,-2.20117 -0.36171,-1.05147 -0.62194,-1.6572 -0.68554,-1.5918 z m 30.46484,9.1582 c -0.0145,-0.0161 -0.46357,1.34797 -0.99805,3.03125 -0.53448,1.68327 -0.98394,3.08002 -0.99804,3.10352 -0.0186,0.0312 -0.61113,0.0313 -2.16211,-0.002 -1.17499,-0.0252 -2.58317,-0.0473 -3.12891,-0.0469 -0.97793,7e-4 -0.98976,0.003 -0.91406,0.0762 0.0422,0.041 0.97864,0.7393 2.08203,1.55078 2.93713,2.16008 2.72656,1.99452 2.72656,2.13672 0,0.17199 -0.30016,1.36293 -0.60351,2.39258 -0.20749,0.70429 -1.01393,3.18868 -1.12891,3.47656 -0.015,0.0375 -0.0147,0.0684 0.002,0.0684 0.11329,0 0.8224,-0.48216 2.49024,-1.69336 1.12995,-0.82058 1.84027,-1.2986 2.28711,-1.53906 0.49679,-0.26732 0.47588,-0.26706 0.91601,0.0293 0.38167,0.257 0.93544,0.65257 2.66992,1.91016 1.12016,0.81216 1.85362,1.3124 1.88282,1.2832 0.0352,-0.0352 -0.29607,-1.11395 -0.99414,-3.23828 -0.35995,-1.09539 -0.69504,-2.12803 -0.74414,-2.29492 l -0.0879,-0.30274 0.13281,-0.13867 c 0.073,-0.0756 0.3866,-0.33477 0.69726,-0.57617 0.57276,-0.44505 0.96218,-0.73415 3.05664,-2.26563 l 1.16797,-0.85351 -0.91406,-0.0117 c -0.50336,-0.007 -1.74793,0.006 -2.76562,0.0293 -1.01769,0.0228 -2.01946,0.0411 -2.22657,0.041 l -0.37695,0 -1.02148,-3.06836 c -0.56151,-1.68722 -1.03238,-3.08156 -1.04688,-3.09766 z"
       id="path3635" />
  </g>
  <g
     transform="matrix(0.17234044,0,0,0.17234044,765.26747,359.86292)"
     style="fill:none;fill-rule:evenodd;stroke:none;stroke-width:1"
     id="SVG">
    <g
       id="Cookie">
      <g
         id="g3798">
        <path
           style="fill:#b4814a"
           d="m 486.30116,273.4592 c -29.41177,0 -53.25605,-24.01445 -53.25605,-53.63613 0,-9.33161 2.36967,-18.10994 6.53504,-25.74864 -6.27266,1.96542 -12.93889,3.0307 -19.85111,3.0307 -36.75856,0 -66.56391,-30.01806 -66.56391,-67.03896 0,-1.37084 0.12299,-2.70865 0.20498,-4.05471 -7.0762,2.57651 -14.66898,4.05471 -22.62254,4.05471 -36.75857,0 -66.56392,-30.01807 -66.56392,-67.047228 0,-7.622194 1.33652,-14.905807 3.6734,-21.71871 -3.95219,0.858839 -8.04376,1.346065 -12.25833,1.346065 -21.79439,0 -40.75994,-12.238452 -50.47641,-30.257549 C 94.961408,35.957264 12.29358,134.46772 12.29358,252.44243 c 0,135.56438 109.11957,245.4627 243.72332,245.4627 128.09331,0 233.03111,-99.55922 242.88697,-226.01496 -4.05058,0.98271 -8.25695,1.56903 -12.60271,1.56903"
           id="Fill-1" />
        <path
           style="fill:#513a2b"
           d="m 267.86688,301.62085 c 0,31.71923 -25.52518,57.42658 -57.01964,57.42658 -31.49446,0 -57.01965,-25.70735 -57.01965,-57.42658 0,-31.71922 25.52519,-57.42658 57.01965,-57.42658 31.49446,0 57.01964,25.70736 57.01964,57.42658"
           id="Fill-5" />
        <path
           style="fill:#2e2e30"
           d="m 210.8497,256.57972 c -24.66424,0 -44.72033,20.20748 -44.72033,45.03948 0,24.832 20.05609,45.03948 44.72033,45.03948 24.66423,0 44.72032,-20.20748 44.72032,-45.03948 0,-24.832 -20.05609,-45.03948 -44.72032,-45.03948 m 0,114.85316 c -38.21809,0 -69.31897,-31.31458 -69.31897,-69.81368 0,-38.4991 31.10088,-69.81368 69.31897,-69.81368 38.21808,0 69.31896,31.31458 69.31896,69.81368 0,38.4991 -31.10088,69.81368 -69.31896,69.81368"
           id="Fill-7" />
        <path
           style="fill:#513a2b"
           d="m 12.322278,253.45321 c 6.87122,5.53291 15.464345,8.97652 24.943021,8.97652 22.187973,0 40.169578,-18.1182 40.169578,-40.46452 0,-22.34632 -17.981605,-40.45626 -40.169578,-40.45626 -5.485497,0 -10.708608,1.1231 -15.472544,3.12981 -6.141461,21.54529 -9.495075,44.27148 -9.495075,67.80697 0,0.33858 0.0246,0.6689 0.0246,1.00748"
           id="Fill-9" />
        <path
           style="fill:#513a2b"
           d="m 214.71086,121.62064 c 0,17.39149 -13.99662,31.488 -31.26487,31.488 -17.26824,0 -31.26487,-14.09651 -31.26487,-31.488 0,-17.39148 13.99663,-31.487995 31.26487,-31.487995 17.26825,0 31.26487,14.096515 31.26487,31.487995"
           id="Fill-11" />
        <path
           style="fill:#2e2e30"
           d="m 183.44845,102.51974 c -10.45442,0 -18.96555,8.57187 -18.96555,19.1009 0,10.52904 8.51113,19.10091 18.96555,19.10091 10.45442,0 18.96555,-8.57187 18.96555,-19.10091 0,-10.52903 -8.51113,-19.1009 -18.96555,-19.1009 m 0,62.976 c -24.02467,0 -43.56419,-19.67897 -43.56419,-43.8751 0,-24.196124 19.53952,-43.875092 43.56419,-43.875092 24.02467,0 43.55599,19.678968 43.55599,43.875092 0,24.19613 -19.53132,43.8751 -43.55599,43.8751"
           id="Fill-13" />
        <path
           style="fill:#513a2b"
           d="m 412.08625,335.55572 c 0,17.39148 -13.99663,31.488 -31.26487,31.488 -17.26825,0 -31.26487,-14.09652 -31.26487,-31.488 0,-17.39149 13.99662,-31.488 31.26487,-31.488 17.26824,0 31.26487,14.09651 31.26487,31.488"
           id="Fill-15" />
        <path
           style="fill:#2e2e30"
           d="m 380.8222,316.45481 c -10.45443,0 -18.96555,8.57187 -18.96555,19.10091 0,10.52903 8.51112,19.1009 18.96555,19.1009 10.45442,0 18.96555,-8.57187 18.96555,-19.1009 0,-10.52904 -8.51113,-19.10091 -18.96555,-19.10091 m 0,62.976 c -24.02467,0 -43.56419,-19.67897 -43.56419,-43.87509 0,-24.19613 19.53952,-43.8751 43.56419,-43.8751 24.02467,0 43.55599,19.67897 43.55599,43.8751 0,24.19612 -19.53132,43.87509 -43.55599,43.87509"
           id="Fill-17" />
        <path
           style="fill:#513a2b"
           d="m 256.01526,497.90266 c 7.07621,0 14.07042,-0.3551 20.99904,-0.94968 0.39358,-2.47742 0.66416,-5.00439 0.66416,-7.59742 0,-25.96335 -20.90064,-47.0049 -46.68002,-47.0049 -25.02501,0 -45.39269,19.85238 -46.55702,44.77522 22.63075,6.99459 46.66362,10.77678 71.57384,10.77678"
           id="Fill-19" />
        <path
           style="opacity:0.2;fill:#010202"
           d="m 486.30116,273.4592 c -2.99283,0 -5.90367,-0.30555 -8.75711,-0.78452 -39.8088,98.18839 -135.46471,167.424 -247.28193,167.424 -77.6661,0 -147.575433,-33.41213 -196.387334,-86.70967 38.226286,85.19845 123.280184,144.51612 222.142114,144.51612 128.09331,0 233.03111,-99.55922 242.88697,-226.01496 -4.05058,0.98271 -8.25695,1.56903 -12.60271,1.56903"
           id="Fill-3" />
        <path
           style="fill:#2e2e30"
           d="m 289.61946,482.98859 c -3.16502,-29.76206 -28.23104,-53.02503 -58.61856,-53.02503 -26.04996,0 -48.18873,17.00336 -55.9291,40.81136 C 93.453511,439.98059 33.596822,364.03943 25.569466,273.29156 c 3.820988,0.90013 7.707573,1.51948 11.700753,1.51948 28.928,0 52.468898,-23.70064 52.468898,-52.84335 0,-28.15174 -21.982985,-51.15871 -49.54986,-52.69471 C 66.780386,99.896981 125.42354,45.170787 199.44085,26.424981 c 12.39771,16.970322 31.76504,27.532387 52.85428,28.531612 -0.27059,2.683871 -0.41818,5.376001 -0.41818,8.059871 0,43.800776 35.38924,79.434326 78.87144,79.434326 3.66519,0 7.32219,-0.26426 10.95459,-0.79278 5.68229,38.912 39.43982,68.51716 79.85538,67.81523 -0.54937,3.41884 -0.81995,6.87897 -0.81995,10.34735 0,35.96387 28.70661,65.30478 64.25164,66.01497 -14.60339,101.90452 -95.44272,182.22245 -195.37059,197.15303 m -33.60994,2.52697 c -4.48515,0 -8.95391,-0.16516 -13.40626,-0.42116 -1.38572,-0.0826 -2.74685,-0.21471 -4.12437,-0.31381 -3.10763,-0.23948 -6.21526,-0.52026 -9.30649,-0.88361 -1.54971,-0.18168 -3.09942,-0.37987 -4.63274,-0.59458 -3.00923,-0.4129 -5.99387,-0.89187 -8.9785,-1.42864 -1.45132,-0.25601 -2.90264,-0.49549 -4.34576,-0.77626 -3.657,-0.72671 -7.2894,-1.55252 -10.9054,-2.45265 -0.59857,-0.14864 -1.21353,-0.26426 -1.8203,-0.42116 4.59175,-13.7249 17.44044,-23.48594 32.5112,-23.48594 17.58803,0 32.13403,13.37807 34.13471,30.5631 -3.03383,0.12387 -6.06766,0.21471 -9.12609,0.21471 M 37.270219,193.89027 c 15.36595,0 27.870258,12.59355 27.870258,28.07742 0,15.47561 -12.504308,28.06916 -27.870258,28.06916 -4.968926,0 -9.142495,-1.37084 -12.438712,-3.09677 0.114793,-4.68233 0.213188,-9.37291 0.598566,-13.99742 0.041,-0.47071 0.114794,-0.94142 0.155792,-1.41213 0.500172,-5.54942 1.221732,-11.04929 2.115483,-16.49961 0.18039,-1.09833 0.36078,-2.20491 0.549369,-3.30323 1.041343,-5.83845 2.254876,-11.6191 3.722595,-17.31716 1.738303,-0.33858 3.509405,-0.52026 5.296907,-0.52026 m 473.884591,78.96361 c 0.31978,-3.95561 -1.27913,-7.82864 -4.28837,-10.40516 -2.98463,-2.56 -7.03521,-3.52619 -10.87259,-2.60129 -3.30442,0.80929 -6.56784,1.2222 -9.69187,1.2222 -22.58975,0 -40.96493,-18.49807 -40.96493,-41.24904 0,-6.912 1.7383,-13.74967 5.02632,-19.78632 2.41067,-4.42632 1.91869,-9.89316 -1.26273,-13.79922 -3.18142,-3.91433 -8.37994,-5.48336 -13.17667,-3.98865 -5.23131,1.64335 -10.67581,2.47742 -16.1941,2.47742 -29.92015,0 -54.2646,-24.52645 -54.2646,-54.66013 0,-0.74322 0.0574,-1.47819 0.10659,-2.2049 l 0.0656,-1.11484 c 0.25418,-4.16207 -1.59892,-8.16723 -4.91153,-10.66116 -3.32082,-2.49394 -7.65838,-3.13807 -11.54496,-1.72594 -6.04307,2.20491 -12.24193,3.31974 -18.43258,3.31974 -29.92015,0 -54.2728,-24.51819 -54.2728,-54.660126 0,-5.921032 1.00854,-11.866838 3.00923,-17.672258 1.44312,-4.228129 0.51657,-8.926967 -2.42706,-12.271483 -2.96004,-3.352775 -7.46979,-4.830968 -11.82375,-3.881291 C 245.12052,33.626013 225.35961,23.947561 215.93834,6.4734968 213.33908,1.6590452 207.92738,-0.86792258 202.57308,0.27169032 109.44263,20.1984 36.630654,91.085626 10.498699,179.95066 c -0.17219,0.42116 -0.393578,0.8258 -0.5247707,1.26348 -0.3525805,1.23871 -0.5903673,2.50219 -0.9265487,3.74916 -1.0987392,4.04645 -2.1318821,8.12594 -3.0338322,12.23845 -0.36078,1.65162 -0.6559637,3.30323 -0.9839456,4.9631 -0.7789569,3.88129 -1.4677188,7.78736 -2.0662857,11.72645 -0.1885896,1.26349 -0.4099773,2.52697 -0.5821678,3.79045 -0.6805624,5.01265 -1.1971338,10.07484 -1.58251247,15.16181 -0.0983946,1.19742 -0.16399093,2.39484 -0.23778685,3.59226 -0.33618141,5.30993 -0.55756916,10.63639 -0.55756916,16.00413 0,0.0991 0.01639909,0.88361 0.02459864,1.06529 l 0,0.033 C 0.5116517,368.82085 76.48045,466.48898 180.63929,498.86885 c 0.0656,0.0248 0.12299,0.0743 0.18859,0.0991 0.74616,0.23122 1.51691,0.37987 2.26307,0.60284 4.52615,1.36258 9.1097,2.57651 13.73424,3.68309 1.45132,0.34684 2.90264,0.70194 4.35396,1.01575 5.4281,1.19741 10.9054,2.27096 16.44829,3.11329 0.52477,0.0826 1.04135,0.12387 1.56612,0.19819 5.09191,0.74323 10.24123,1.30477 15.42334,1.74245 1.45132,0.11561 2.88624,0.23123 4.33756,0.33032 5.64129,0.37162 11.32358,0.63588 17.05506,0.63588 3.657,0 7.35499,-0.0991 11.15138,-0.27252 2.78785,-0.12387 5.5429,-0.33858 8.30614,-0.55329 0.87736,-0.0661 1.70551,-0.0908 2.59926,-0.17342 0.0328,0 0.0656,-0.0165 0.0984,-0.0248 122.8128,-10.83456 223.20805,-110.75714 232.99011,-236.41185"
           id="Fill-21" />
      </g>
    </g>
  </g>
  <path
     id="path3456"
     d="m 684.84287,360.54673 c -1.82638,5.5e-4 -6.81422,1.68174 -10.66406,3.59375 -8.46686,4.20504 -15.22424,10.95708 -19.63867,19.62305 -2.46371,4.8365 -3.78082,9.11873 -4.55078,14.80273 -0.30242,2.23237 -0.25532,8.79578 0.0801,11.21875 2.01485,14.55762 11.0272,27.18031 24.08007,33.72657 4.72199,2.36817 9.05134,3.65176 14.75196,4.375 2.21479,0.281 8.01016,0.19636 10.58398,-0.1543 7.37306,-1.0045 14.54749,-3.97344 20.625,-8.53906 2.86255,-2.15043 7.28127,-6.7056 9.24219,-9.52735 3.31969,-4.777 5.52527,-9.45591 6.83203,-14.48828 1.15238,-4.43789 1.56064,-8.15638 1,-9.10547 -0.41525,-0.70292 -0.81355,-0.80705 -3.00391,-0.78515 -2.35129,0.0235 -3.25215,-0.18749 -4.65429,-1.09375 -2.30155,-1.48756 -3.6398,-4.42753 -3.19532,-7.01953 0.0994,-0.5796 0.32618,-1.39202 0.50391,-1.80664 0.51294,-1.19665 0.56332,-1.97869 0.16992,-2.61524 -0.18356,-0.29699 -0.57854,-0.65825 -0.8789,-0.80078 -0.50299,-0.23869 -0.64957,-0.23905 -1.8418,-0.0156 -3.33174,0.62432 -6.25334,-0.083 -8.51172,-2.0586 -1.95908,-1.71376 -3.00239,-3.84211 -3.27148,-6.67969 -0.0882,-0.9309 -0.16009,-1.80861 -0.16016,-1.95117 -7e-5,-0.14256 -0.29259,-0.47515 -0.65039,-0.73828 -0.71565,-0.52632 -0.76883,-0.52742 -3.06641,-0.082 -3.35503,0.65033 -6.25026,-0.2163 -8.59179,-2.57031 -2.52848,-2.54193 -3.36874,-5.68189 -2.49415,-9.33008 0.30907,-1.28936 0.31003,-1.29449 0.002,-1.89844 -0.51979,-1.01886 -0.73484,-1.09375 -3.13672,-1.09375 -1.6849,0 -2.33876,-0.0659 -3.13086,-0.31055 -1.45107,-0.44818 -3.00905,-1.60102 -4.07812,-3.02148 -1.10533,-1.46862 -1.3689,-1.6546 -2.35157,-1.6543 z m -1.15234,4.36328 c 0.20249,0 0.88376,0.52991 1.76367,1.3711 2.05043,1.96023 3.93498,2.87215 6.98047,3.37695 0.5786,0.0959 0.58494,0.10241 0.58594,0.82813 0.003,1.5007 0.33416,3.55375 0.80078,4.96093 0.63429,1.91288 1.6115,3.54887 2.98437,4.99414 2.78412,2.93097 5.87142,4.24165 10.15625,4.31055 l 1.55274,0.0254 0.28515,1.08985 c 1.48644,5.70266 5.99025,9.65925 11.79493,10.35937 0.7262,0.0875 1.4198,0.1582 1.54101,0.1582 0.17716,0 0.20159,0.19094 0.1211,0.97657 -0.055,0.53747 -0.0318,1.52322 0.0527,2.18945 0.6356,5.01307 4.49734,9.01435 9.43164,9.77344 0.6856,0.10547 1.29973,0.23857 1.36523,0.29687 0.1526,0.13578 -0.23652,2.23721 -0.83593,4.51172 -1.40137,5.31758 -4.05607,10.53928 -7.57227,14.89648 -1.59851,1.98085 -5.14035,5.43581 -7.05859,6.88477 -4.67969,3.53486 -9.86978,5.92043 -15.84375,7.28516 -2.45182,0.56011 -2.30653,0.60221 -2.62305,-0.73047 -0.48582,-2.04557 -1.20236,-3.29829 -2.78906,-4.87305 -2.23865,-2.22182 -3.91296,-2.93745 -6.8711,-2.93945 -2.0304,-10e-4 -3.01982,0.20794 -4.5957,0.96875 -1.63005,0.78698 -3.56553,2.72036 -4.50976,4.50586 -0.3739,0.70702 -0.76724,1.28515 -0.875,1.28515 -0.29443,0 -3.39244,-1.42888 -4.89844,-2.25976 -6.80905,-3.75666 -12.91922,-10.02022 -16.375,-16.78906 -2.19467,-4.2987 -3.85604,-9.68399 -4.2793,-13.86719 l -0.10742,-1.05274 1.87305,0 c 1.4326,0 2.10331,-0.0713 2.86132,-0.30859 2.61947,-0.82005 4.67857,-2.77964 5.69532,-5.41992 0.54393,-1.4125 0.6822,-4.04776 0.28515,-5.42383 -0.57286,-1.9854 -1.70507,-3.67036 -3.25781,-4.8418 -1.12524,-0.84892 -1.91451,-1.20942 -3.60352,-1.65234 -0.6856,-0.1798 -1.26566,-0.34007 -1.28906,-0.35547 -0.0234,-0.0154 0.19451,-0.58136 0.48438,-1.25781 4.04677,-9.44371 11.36841,-16.96875 20.54687,-21.11914 1.85291,-0.83786 5.66091,-2.15821 6.22266,-2.15821 z m -2.73633,8.89454 c -0.51784,0.0165 -1.04065,0.0887 -1.5625,0.2246 -5.70084,1.48488 -7.56873,8.66027 -3.29492,12.65821 1.03439,0.96762 1.95007,1.49478 3.18164,1.83398 0.98207,0.2707 2.72802,0.27416 3.72852,0.008 3.69007,-0.98234 6.09008,-4.60773 5.51367,-8.32812 -0.59193,-3.82061 -3.94152,-6.51178 -7.56641,-6.39648 z m -0.0273,4.21289 c 2.12398,-0.15144 3.98212,1.90493 3.37695,4.15234 -0.22364,0.83053 -0.98651,1.71212 -1.80078,2.08203 -0.34354,0.15606 -0.94052,0.2832 -1.32617,0.2832 -1.73888,0 -3.26749,-1.51598 -3.27149,-3.24609 -0.003,-1.22748 0.95719,-2.62741 2.10157,-3.06445 0.30794,-0.11761 0.61649,-0.1854 0.91992,-0.20703 z m -25.18164,15.74804 c 1.28077,-0.0924 2.9426,0.60616 3.8164,1.60352 1.0568,1.20623 1.47528,3.23485 0.97656,4.73633 -0.33321,1.0032 -1.49732,2.30589 -2.51171,2.8125 -0.90434,0.45165 -2.65726,0.58485 -3.49414,0.26562 l -0.54493,-0.20703 0.0156,-1.77734 c 0.0168,-1.87761 0.34912,-4.48036 0.80273,-6.29493 l 0.27149,-1.08984 0.66797,-0.0488 z m 30.18554,6.6211 c -3.30161,1.1e-4 -5.78206,0.99753 -8.24414,3.31445 -3.03445,2.85554 -4.36278,7.53311 -3.29687,11.61523 0.33666,1.28934 1.49386,3.57603 2.30469,4.55469 1.78578,2.15544 4.57481,3.7987 7.1914,4.23633 6.19205,1.03563 12.11398,-2.9461 13.59766,-9.14258 0.32919,-1.37512 0.32314,-3.98926 -0.0117,-5.41406 -0.14099,-0.5999 -0.56327,-1.72089 -0.93945,-2.49219 -2.04147,-4.18568 -5.99192,-6.67202 -10.60157,-6.67187 z m 0.27344,4.20507 c 3.55953,0.12698 6.74764,2.76125 7.29102,6.66797 0.50235,3.61175 -1.66905,7.16428 -5.11133,8.35938 -1.20032,0.41672 -3.13038,0.51063 -4.31445,0.21094 -2.65479,-0.67191 -4.91985,-2.94247 -5.6211,-5.63477 -0.90798,-3.48598 0.88578,-7.30142 4.1582,-8.84961 1.18482,-0.56054 2.41115,-0.79623 3.59766,-0.75391 z m 28.56055,6.1504 c -1.86886,0.0647 -3.2295,0.65429 -4.63477,1.96875 -1.58149,1.4793 -2.30859,3.20851 -2.30859,5.49609 0,1.62586 0.41641,2.96726 1.32812,4.29102 1.07249,1.55719 2.97595,2.74832 4.90625,3.07226 2.25129,0.37782 4.80454,-0.50071 6.44141,-2.2168 3.59985,-3.77406 2.48999,-9.73725 -2.23242,-11.99023 -1.03523,-0.49389 -1.33742,-0.56379 -2.66797,-0.61719 -0.28935,-0.0116 -0.56505,-0.0131 -0.83203,-0.004 z m 0.46484,4.17773 c 1.53504,0.0186 3.00837,1.10543 3.15625,2.88867 0.13715,1.65387 -0.85412,3.10532 -2.38281,3.49024 -0.85955,0.21647 -1.10422,0.21031 -1.8418,-0.0527 -2.12596,-0.75821 -2.89733,-3.41557 -1.48828,-5.125 0.69187,-0.83935 1.63562,-1.21231 2.55664,-1.20117 z m -25.79297,23.92578 c 1.31965,5.8e-4 1.57973,0.0505 2.41016,0.45703 1.60087,0.78364 2.91545,2.42963 3.27148,4.09961 l 0.10742,0.50781 -2.31054,-0.0273 c -2.73096,-0.031 -2.99364,-0.0509 -5.42774,-0.43945 -3.08343,-0.49223 -3.50586,-0.60667 -3.50586,-0.95117 0,-0.85295 1.5137,-2.46974 2.96094,-3.16211 0.91415,-0.43739 1.15807,-0.48501 2.49414,-0.48438 z"
     style="fill:#ffffff" />
</svg>
