<?xml version="1.0" encoding="UTF-8" standalone="no"?>
<svg
   xmlns:dc="http://purl.org/dc/elements/1.1/"
   xmlns:cc="http://creativecommons.org/ns#"
   xmlns:rdf="http://www.w3.org/1999/02/22-rdf-syntax-ns#"
   xmlns:svg="http://www.w3.org/2000/svg"
   xmlns="http://www.w3.org/2000/svg"
   id="svg3410"
   version="1.1"
   width="1280"
   height="855"
   viewBox="0 0 1280 855">
  <metadata
     id="metadata3416">
    <rdf:RDF>
      <cc:Work
         rdf:about="">
        <dc:format>image/svg+xml</dc:format>
        <dc:type
           rdf:resource="http://purl.org/dc/dcmitype/StillImage" />
        <dc:title></dc:title>
      </cc:Work>
    </rdf:RDF>
  </metadata>
  <defs
     id="defs3414" />
  <style
     id="style3473"
     type="text/css">
	.st0{fill:#DD0031;}
	.st1{fill:#C3002F;}
	.st2{fill:#FFFFFF;}
</style>
  <rect
     y="253.70964"
     x="460.38705"
     height="198.19354"
     width="313.80646"
     id="rect3469"
     style="fill:#ff0000" />
  <path
     id="path3425"
     d="m 617.51179,279.51197 c -0.19539,0.12823 -0.62899,1.13734 -1.04102,2.45117 l -0.85742,2.72851 -2.90039,0.10547 -2.90039,0.10547 2.23047,1.61328 c 1.2271,0.88788 2.23046,1.8081 2.23046,2.04297 0,0.23488 -0.32706,1.38199 -0.72851,2.54883 -0.40146,1.16685 -0.73047,2.26782 -0.73047,2.44727 0,0.17943 1.0418,-0.41858 2.31641,-1.32813 l 2.31836,-1.6543 2.32421,1.61719 c 1.27797,0.88936 2.36939,1.57203 2.42579,1.51563 0.0564,-0.0564 -0.29902,-1.28184 -0.78907,-2.72266 l -0.89062,-2.61914 2.40625,-1.82227 2.40625,-1.82031 -2.94531,0 -2.94336,0 -0.80469,-2.46484 c -0.44266,-1.3549 -0.91919,-2.58993 -1.0586,-2.74414 -0.0174,-0.0193 -0.0403,-0.0183 -0.0684,0 z m 30.72265,6.30273 c -0.13237,0 -0.60996,1.1496 -1.0625,2.55469 l -0.82422,2.55469 -2.98828,0.0117 -2.99023,0.0117 0.94336,0.8086 c 0.5186,0.4453 1.58283,1.31816 2.36523,1.93945 l 1.42188,1.13086 -0.67969,2.1543 c -0.37337,1.18526 -0.76456,2.38185 -0.87109,2.66015 l 0,0.002 c -0.24955,0.65191 0.0316,0.51891 2.58203,-1.20704 l 2.11132,-1.42773 2.22266,1.5332 c 1.22285,0.84384 2.26827,1.48749 2.32227,1.42969 0.054,-0.0578 -0.21189,-1.09055 -0.58985,-2.29492 -0.37796,-1.20435 -0.67987,-2.43524 -0.67187,-2.73633 0.008,-0.3011 1.03166,-1.28814 2.27539,-2.19141 l 2.26172,-1.64062 -3.0918,-0.18359 -3.08984,-0.18164 -0.70313,-2.46485 c -0.38667,-1.35491 -0.811,-2.46289 -0.94336,-2.46289 z m -61.3789,0.26758 c -0.1958,0.12951 -0.63276,1.14241 -1.04688,2.46289 l -0.85937,2.74414 -2.92383,0 -2.92383,0 2.25781,1.67773 c 1.24204,0.92298 2.25781,1.80159 2.25781,1.95118 0,0.1496 -0.32706,1.22573 -0.72851,2.39257 -0.40146,1.16685 -0.73047,2.26039 -0.73047,2.42969 0,0.5187 0.32185,0.36152 2.37109,-1.15234 1.08686,-0.80291 2.09961,-1.45899 2.25,-1.45899 0.1504,0 1.21085,0.65608 2.35547,1.45899 1.14463,0.80291 2.16072,1.46094 2.25781,1.46094 0.0971,0 -0.20085,-1.1861 -0.66015,-2.63477 l -0.83399,-2.63477 2.22852,-1.65429 2.22852,-1.6543 -2.78907,-0.10547 -2.78906,-0.10547 -0.80078,-2.44922 c -0.43993,-1.34671 -0.91334,-2.57431 -1.05273,-2.72851 -0.0174,-0.0193 -0.0404,-0.0185 -0.0684,0 z m 22.70507,15.63867 -2.14843,0.44336 c -1.18226,0.2442 -3.5616,0.99837 -5.28711,1.67578 -14.41887,5.66061 -24.5665,18.08089 -27.4668,33.61719 -0.8415,4.50774 -0.56283,13.67569 0.54492,17.88281 2.28472,8.67718 6.55289,15.95974 12.79102,21.82813 6.88868,6.48038 14.74171,10.17966 24.82031,11.69336 2.25163,0.33817 8.14756,0.18639 11.31445,-0.29102 9.59843,-1.44696 18.13516,-5.88087 24.91016,-12.93945 3.58807,-3.73826 5.94479,-7.02324 8.02148,-11.17969 2.85235,-5.70891 4.99442,-14.70824 4.07227,-17.11133 -0.15722,-0.40971 -0.71341,-0.57994 -1.91602,-0.58594 -6.76799,-0.0356 -10.04902,-4.11415 -8.36718,-10.40234 0.69664,-2.60468 0.3301,-2.90108 -3.66993,-2.95508 -2.81704,-0.038 -3.6376,-0.19643 -5.33593,-1.02734 -1.10377,-0.54003 -2.49894,-1.57792 -3.09961,-2.30664 -1.19357,-1.448 -2.20703,-4.0213 -2.20703,-5.60352 0,-0.55336 -0.16839,-1.44607 -0.37305,-1.98437 l -0.37109,-0.97852 -3.04297,0.25195 c -1.895,0.15785 -3.60619,0.10277 -4.53907,-0.14843 -2.0495,-0.55187 -4.39453,-2.42535 -5.71679,-4.56641 -1.0358,-1.67722 -1.10352,-2.00966 -1.10352,-5.46289 0,-2.02194 -0.11753,-3.85667 -0.26172,-4.07812 -0.14418,-0.22146 -1.48032,-0.49486 -2.96875,-0.60743 -3.27217,-0.24747 -4.41141,-0.7961 -6.78125,-3.26757 l -1.81836,-1.89649 z m -2.07812,4.35547 c 0.80597,0.0154 1.31843,0.48584 2.42187,1.42773 1.85043,1.57949 5.07653,3.12696 6.51758,3.12696 0.54373,0 0.72841,0.47921 1.04102,2.70703 0.99788,7.11126 5.82046,11.83826 12.4414,12.19531 1.54792,0.0835 2.73186,0.31833 2.81446,0.55859 1.23749,3.59962 1.90484,4.85548 3.50781,6.60938 2.13015,2.33072 5.4219,4.11327 8.20898,4.44336 l 1.86914,0.2207 0.24024,2.43164 c 0.32352,3.28322 1.5144,5.70025 3.83984,7.79102 1.82172,1.63789 4.48463,2.82422 6.33789,2.82422 0.64591,0 0.68712,0.17463 0.45899,1.91601 -0.32103,2.45072 -2.04782,7.62764 -3.52735,10.57422 -4.85535,9.66979 -13.5445,17.14522 -23.86914,20.53516 -1.60582,0.52725 -3.69184,1.05276 -4.63476,1.16797 -1.65456,0.20215 -1.72223,0.17367 -1.9668,-0.8418 -0.72089,-2.99328 -4.04614,-6.70224 -6.6582,-7.42774 -4.47134,-1.24191 -8.87764,0.45751 -11.44141,4.41407 -0.63383,0.97817 -1.37474,1.77929 -1.64648,1.77929 -0.78942,0 -6.3279,-2.88324 -8.32227,-4.33203 -6.24078,-4.53353 -11.29177,-10.68425 -13.96289,-17 -1.25046,-2.95665 -2.75936,-8.21967 -3.1543,-11.00781 l -0.21289,-1.50195 2.37305,-0.24219 c 3.09582,-0.31717 4.07697,-0.71634 5.7832,-2.34375 1.90863,-1.82046 2.76735,-3.79168 2.77735,-6.37695 0.015,-3.96214 -2.41393,-7.17573 -6.36719,-8.42188 -2.31,-0.72817 -2.31833,-0.52547 0.1875,-5.31836 4.21586,-8.06364 12.36776,-15.36961 20.76367,-18.60742 2.27442,-0.87711 3.37371,-1.31624 4.17969,-1.30078 z m -41.74805,2.36523 c -0.12171,0 -0.59043,1.1496 -1.04297,2.55469 l -0.82422,2.55469 -2.98828,0.0117 -2.99023,0.0117 1.09375,0.80664 c 0.60218,0.44384 1.64356,1.30665 2.31445,1.91601 l 1.2207,1.10742 -0.63085,2.17969 c -0.34686,1.19862 -0.71895,2.41147 -0.82618,2.69531 -0.23566,0.62375 0.0984,0.44111 2.76368,-1.51171 l 1.91992,-1.40625 2.36719,1.68945 c 1.30209,0.92916 2.36718,1.53653 2.36718,1.34961 0,-0.18692 -0.32706,-1.29604 -0.72851,-2.46289 -0.40146,-1.16684 -0.72857,-2.30005 -0.72657,-2.51953 0.002,-0.21949 1.01867,-1.13775 2.25977,-2.04102 l 2.25586,-1.64258 -2.97266,-0.10547 -2.97461,-0.10742 -0.81836,-2.53906 c -0.44997,-1.39712 -0.91736,-2.54102 -1.03906,-2.54102 z m 103.58789,0.17774 c -0.13364,-0.13101 -0.61486,0.91986 -1.07031,2.33398 l -0.82812,2.57031 -2.89649,0.10547 -2.89648,0.10547 1.5957,1.17969 c 3.25359,2.40576 3.01924,1.90161 2.16601,4.66406 -0.4151,1.34394 -0.7539,2.59729 -0.7539,2.78321 0,0.18591 0.86219,-0.29431 1.91601,-1.06641 1.05382,-0.7721 2.12883,-1.53068 2.38868,-1.68555 0.29684,-0.17693 1.2217,0.28444 2.49023,1.24219 1.11042,0.83838 2.10346,1.43952 2.20703,1.33594 0.10358,-0.10358 -0.0729,-1.0879 -0.39258,-2.1875 -0.31966,-1.09959 -0.58007,-2.26005 -0.58007,-2.57813 0,-0.31808 1.00749,-1.31198 2.24023,-2.20898 l 2.24219,-1.63086 -3.03321,-0.10547 -3.03125,-0.10742 -0.75976,-2.25586 c -0.41798,-1.24045 -0.87027,-2.36313 -1.00391,-2.49414 z m -64.08008,6.55078 c -0.54139,0.006 -1.08898,0.0789 -1.63671,0.22461 -3.42897,0.91231 -5.38868,3.52816 -5.38868,7.19336 0,2.57667 1.12637,4.58224 3.40625,6.06054 2.70267,1.75246 6.54466,1.20137 8.88868,-1.27539 1.44171,-1.52336 1.9375,-2.79741 1.9375,-4.9707 0,-4.05775 -3.41733,-7.27323 -7.20704,-7.23242 z m -0.32812,3.87695 c 0.62589,-0.0297 1.31656,0.14086 2.04883,0.51953 1.94627,1.00645 2.21468,3.83258 0.50976,5.36133 -1.52093,1.36379 -3.45719,1.11149 -4.82617,-0.6289 -0.92251,-1.17278 -0.97923,-2.00715 -0.23047,-3.45508 0.58911,-1.1392 1.45488,-1.74743 2.49805,-1.79688 z m -24.48828,15.89453 c 4.62585,0.13964 6.24942,6.44885 2.28906,8.89649 -1.30328,0.80547 -4.00173,0.99547 -4.42383,0.3125 -0.38105,-0.61657 -0.17493,-4.94902 0.34571,-7.25586 0.44759,-1.98315 0.45689,-1.99333 1.78906,-1.95313 z m 97.11523,4.70508 -0.91406,2.73633 -0.91602,2.73828 -3.01562,0.10547 -3.01563,0.10742 2.38868,1.8086 2.38867,1.80859 -0.5332,1.73437 c -1.22766,3.98558 -1.24095,3.96397 1.29882,2.09961 0.95706,-0.70254 1.97748,-1.27734 2.26758,-1.27734 0.2901,0 1.41776,0.63107 2.50586,1.40234 1.0881,0.77127 2.02598,1.36732 2.08398,1.32422 0.058,-0.0431 -0.22825,-1.27914 -0.63476,-2.74609 -0.40651,-1.46694 -0.69974,-2.69416 -0.65234,-2.72656 0.0474,-0.0324 1.07103,-0.78311 2.27539,-1.66797 l 2.18945,-1.60938 -2.93945,-0.10351 -2.94141,-0.10547 -0.91797,-2.81446 -0.91797,-2.81445 z m -120.33789,0.1543 -0.96094,2.66015 -0.96093,2.66016 -3.03321,0.18164 -3.0332,0.18164 2.03711,1.40235 c 2.96308,2.03646 2.92598,1.94112 1.91016,4.92773 -0.48852,1.43632 -0.77336,2.60852 -0.63477,2.60352 0.13859,-0.005 1.22016,-0.74255 2.4043,-1.63672 l 2.15234,-1.625 2.31836,1.65429 c 1.27477,0.90966 2.31645,1.52201 2.31445,1.36133 -0.002,-0.16069 -0.33158,-1.35934 -0.73437,-2.66406 l -0.73242,-2.37305 1.1914,-1.02734 c 0.65523,-0.56499 1.64332,-1.29753 2.19532,-1.62891 0.552,-0.33137 1.0039,-0.73122 1.0039,-0.88867 0,-0.15745 -1.28499,-0.28711 -2.85547,-0.28711 l -2.85547,0 -0.86328,-2.75 -0.86328,-2.75195 z m 53.01563,1.98437 c -1.73321,-0.041 -3.45334,0.23676 -4.76758,0.8418 -5.86826,2.70156 -8.68592,9.847 -6.0918,15.44922 1.66721,3.60047 4.18422,5.75821 7.95508,6.82031 3.55782,1.0021 8.17936,-0.3343 10.91797,-3.15625 2.26322,-2.33209 3.12885,-4.42341 3.2832,-7.93164 0.11351,-2.57974 0.007,-3.26097 -0.77539,-4.9707 -1.23491,-2.69738 -3.20712,-4.77462 -5.67578,-5.98242 -1.36626,-0.66845 -3.11249,-1.02932 -4.8457,-1.07032 z m -0.53711,3.93946 c 0.36838,-0.0185 0.74505,-0.0123 1.1289,0.0195 7.33955,0.60865 9.58762,10.66212 3.21875,14.39453 -4.01154,2.35091 -9.03044,0.86919 -11.02734,-3.25586 -2.48854,-5.14063 1.15411,-10.88046 6.67969,-11.1582 z m 29.49609,6.51172 c -4.03186,0 -7.02148,3.00745 -7.02148,7.06445 0,2.73202 1.99703,5.81199 4.38086,6.75976 0.50182,0.19951 1.80035,0.37402 2.88672,0.38672 3.92954,0.046 7.07031,-3.08205 7.07031,-7.04101 0,-4.30603 -2.92157,-7.16992 -7.31641,-7.16992 z m 0.33594,3.74414 c 0.84219,-0.005 1.6642,0.28111 2.23633,0.91601 1.46645,1.62731 1.01761,4.41986 -0.86719,5.39453 -1.40621,0.72718 -2.25075,0.66548 -3.41211,-0.24804 -1.36657,-1.07491 -1.78129,-2.32271 -1.2793,-3.84375 0.45841,-1.38901 1.9186,-2.21024 3.32227,-2.21875 z m -74.16602,13.26172 c -0.11251,-0.10988 -0.57432,0.94519 -1.02539,2.3457 l -0.82031,2.54687 -2.07617,0.006 c -1.14261,0.003 -2.44226,0.10155 -2.88672,0.22071 -0.72269,0.19375 -0.57747,0.38534 1.36914,1.81836 1.19719,0.88132 2.17773,1.82367 2.17773,2.09374 0,0.27009 -0.32901,1.44645 -0.73046,2.61329 -0.40146,1.16685 -0.73047,2.17914 -0.73047,2.24804 0,0.31947 0.55728,0.0148 2.57226,-1.40625 l 2.17188,-1.53125 2.21875,1.56446 c 1.21993,0.86031 2.26968,1.5056 2.33398,1.4375 0.0643,-0.0681 -0.19235,-1.10813 -0.57031,-2.3125 -0.37797,-1.20436 -0.68841,-2.38841 -0.69141,-2.63282 -0.003,-0.24441 0.9024,-1.13121 2.01172,-1.96875 1.10932,-0.83755 1.92624,-1.6128 1.81641,-1.72265 -0.10986,-0.10984 -1.37379,-0.28942 -2.8086,-0.40235 l -2.60742,-0.20703 -0.75976,-2.2539 c -0.41775,-1.24044 -0.85234,-2.34715 -0.96485,-2.45703 z m 104.37891,0 c -0.11251,-0.10988 -0.56696,0.92394 -1.00977,2.29882 l -0.80664,2.5 -2.94336,0.25782 -2.94531,0.25586 2.2207,1.65039 c 1.22148,0.9077 2.22071,1.77227 2.22071,1.92187 0,0.14959 -0.32901,1.22768 -0.73047,2.39453 -0.40145,1.16684 -0.72852,2.27296 -0.72852,2.45899 0,0.43861 0.15221,0.36193 2.64649,-1.32618 l 2.09961,-1.41992 2.15429,1.51172 c 1.1856,0.83165 2.23513,1.51172 2.33204,1.51172 0.0968,0 -0.19704,-1.21136 -0.6543,-2.69336 l -0.83203,-2.69531 2.17773,-1.53516 c 1.19715,-0.84426 2.07712,-1.63381 1.95703,-1.7539 -0.12008,-0.12008 -1.39135,-0.30895 -2.82617,-0.42188 l -2.60937,-0.20703 -0.75977,-2.25391 c -0.41775,-1.24044 -0.85038,-2.3452 -0.96289,-2.45507 z m -56.0625,10.67578 c 2.13351,0.043 4.19712,1.15663 5.11914,3.09961 0.32978,0.69496 0.59961,1.44349 0.59961,1.66406 0,0.8202 -10.15061,0.18656 -11.07617,-0.69141 -0.5717,-0.5423 0.17739,-1.85738 1.67383,-2.9414 1.09915,-0.79621 2.40348,-1.15666 3.68359,-1.13086 z m -26.01563,10.47656 c -0.17619,0.10142 -0.62357,1.08018 -1.07812,2.38281 l -0.94531,2.70703 -2.71289,0.1836 -2.71289,0.18164 2.07421,1.5625 c 1.14085,0.85959 2.07422,1.70842 2.07422,1.88476 0,0.17634 -0.32149,1.35338 -0.71484,2.61719 -0.39334,1.26381 -0.65277,2.3608 -0.57617,2.4375 0.0767,0.0766 1.06109,-0.54093 2.1875,-1.37305 1.28213,-0.94717 2.28175,-1.43562 2.67383,-1.30664 0.34446,0.11332 1.44754,0.84226 2.45117,1.6211 1.00364,0.77884 1.85853,1.38761 1.89843,1.35351 0.0399,-0.0341 -0.28049,-1.26855 -0.71093,-2.74414 l -0.78321,-2.68359 0.91211,-0.77149 c 0.50119,-0.42491 1.47763,-1.21719 2.16993,-1.75976 l 1.25781,-0.98633 -2.60156,-0.0176 c -1.62622,-0.0107 -2.73504,-0.18745 -2.96094,-0.47266 -0.19876,-0.2509 -0.65148,-1.35889 -1.00586,-2.46289 -0.35438,-1.104 -0.73172,-2.15781 -0.83789,-2.34179 -0.0133,-0.023 -0.0334,-0.0262 -0.0586,-0.0117 z m 59.78711,0.0488 c -0.18065,0.085 -0.54145,0.91619 -0.86523,2.01953 -0.37005,1.26096 -0.82279,2.48995 -1.00586,2.73242 -0.18973,0.25129 -1.44633,0.48618 -2.92188,0.54688 l -2.58789,0.10742 2.11133,1.59179 c 2.32214,1.75072 2.2885,1.59802 1.15039,5.25196 -0.29699,0.95345 -0.45384,1.73242 -0.34765,1.73242 0.10619,0 1.11117,-0.65608 2.23242,-1.45899 1.12125,-0.8029 2.1827,-1.46093 2.35937,-1.46093 0.17666,0 1.22156,0.68067 2.32227,1.51172 1.1007,0.83104 2.08018,1.43349 2.17578,1.33789 0.0956,-0.0956 -0.15661,-1.13048 -0.55859,-2.29883 -0.40197,-1.16836 -0.73047,-2.34516 -0.73047,-2.61524 10e-6,-0.27008 1.00402,-1.22995 2.23047,-2.13281 l 2.23047,-1.64062 -2.73243,0 c -1.75009,0 -2.86427,-0.16487 -3.0957,-0.45704 -0.19874,-0.2509 -0.64963,-1.35889 -1.00195,-2.46289 -0.35232,-1.104 -0.75611,-2.136 -0.89844,-2.29296 -0.0178,-0.0196 -0.0406,-0.0239 -0.0664,-0.0117 z m -29.52734,9.43945 c -0.0252,-0.0145 -0.0454,-0.0113 -0.0586,0.0117 -0.10601,0.18399 -0.55414,1.43649 -0.9961,2.7832 l -0.80468,2.44922 -2.78321,0.10547 -2.7832,0.10547 2.07812,1.42969 c 1.18753,0.81665 2.07813,1.70258 2.07813,2.0664 0,0.35021 -0.31101,1.63713 -0.69141,2.85938 -0.38041,1.22224 -0.61127,2.2207 -0.51367,2.2207 0.0976,0 1.11319,-0.65607 2.25781,-1.45898 1.14463,-0.80291 2.23964,-1.45327 2.43164,-1.44727 0.19201,0.006 1.25197,0.66301 2.35547,1.46094 1.1035,0.79793 2.04963,1.31977 2.10352,1.1582 0.0539,-0.16157 -0.23404,-1.25556 -0.63867,-2.43164 -0.40462,-1.17608 -0.73438,-2.27755 -0.73438,-2.44727 0,-0.16972 0.99231,-1.04131 2.20703,-1.93554 l 2.20899,-1.625 -2.84766,-0.10742 -2.8457,-0.10743 -0.94531,-2.70507 c -0.45454,-1.30262 -0.90206,-2.28335 -1.07813,-2.38477 z"
     style="fill:#ffffff" />
</svg>
