<svg xmlns="http://www.w3.org/2000/svg" viewBox="0 0 250 250" width="250" height="250"><path d="M125 30v0 0l-93.1 33.2 14.2 123.1 78.9 43.7v0 0l78.9-43.7 14.2-123.1z" fill="#295298"/><path d="M125 30v22.2 -0.1 101.3 0 76.6 0l78.9-43.7 14.2-123.1z" fill="#039"/><path d="M124.5 58.5c0 0 0.1 0 0.1 0 0.1 0.2 0.6 1.4 1.1 2.7l0.8 2.5h5.9l-2.4 1.8 -2.4 1.8 0.9 2.6c0.5 1.4 0.9 2.7 0.8 2.7 -0.1 0.1-1.1-0.6-2.4-1.5l-2.3-1.6 -2.3 1.7c-1.3 0.9-2.3 1.5-2.3 1.3 0-0.2 0.3-1.3 0.7-2.4 0.4-1.2 0.7-2.3 0.7-2.5 0-0.2-1-1.2-2.2-2l-2.2-1.6 5.8-0.2 0.9-2.7c0.4-1.3 0.9-2.3 1-2.4zM156.2 67.3l0.7 2.5 3.1 0.2 3.1 0.2 -2.3 1.6c-1.2 0.9-2.3 1.9-2.3 2.2 0 0.3 0.3 1.5 0.7 2.7 0.4 1.2 0.6 2.2 0.6 2.3 0 0.1-1.1-0.6-2.3-1.4l-2.2-1.5 -2.1 1.4c-2.5 1.7-2.8 1.9-2.6 1.2v0c0.1-0.3 0.5-1.5 0.9-2.7l0.7-2.1 -1.4-1.1c-0.8-0.6-1.8-1.5-2.4-1.9l-0.9-0.8 3 0 3 0 0.8-2.5c0.5-1.4 0.9-2.5 1.1-2.5 0.1 0 0.6 1.1 0.9 2.5zM93.9 65.1c0 0 0.1 0 0.1 0 0.1 0.2 0.6 1.4 1.1 2.7l0.8 2.5 2.8 0.1 2.8 0.1 -2.2 1.7 -2.2 1.7 0.8 2.6c0.5 1.5 0.8 2.6 0.7 2.6 -0.1 0-1.1-0.7-2.3-1.5 -1.1-0.8-2.2-1.5-2.4-1.5 -0.1 0-1.2 0.7-2.2 1.5 -2 1.5-2.4 1.7-2.4 1.2 0-0.2 0.3-1.3 0.7-2.4 0.4-1.2 0.7-2.2 0.7-2.4 0-0.1-1-1-2.3-1.9l-2.3-1.7h5.9l0.9-2.7c0.4-1.3 0.9-2.3 1.1-2.5zM118.4 82.6c2.4 2.5 3.5 3 6.8 3.3 1.5 0.1 2.8 0.4 3 0.6 0.1 0.2 0.3 2.1 0.3 4.1 0 3.5 0.1 3.8 1.1 5.5 1.3 2.1 3.7 4 5.7 4.6 0.9 0.3 2.6 0.3 4.5 0.2l3-0.2 0.4 1c0.2 0.5 0.4 1.4 0.4 2 0 1.6 1 4.2 2.2 5.6 0.6 0.7 2 1.8 3.1 2.3 1.7 0.8 2.5 1 5.3 1 4 0.1 4.4 0.4 3.7 3 -1.7 6.3 1.6 10.4 8.4 10.4 1.2 0 1.8 0.2 1.9 0.6 0.9 2.4-1.2 11.4-4.1 17.1 -2.1 4.2-4.4 7.4-8 11.2 -6.8 7.1-15.3 11.5-24.9 12.9 -3.2 0.5-9.1 0.6-11.3 0.3 -10.1-1.5-17.9-5.2-24.8-11.7 -6.2-5.9-10.5-13.1-12.8-21.8 -1.1-4.2-1.4-13.4-0.5-17.9 2.9-15.5 13.1-28 27.5-33.6 1.7-0.7 4.1-1.4 5.3-1.7l2.2-0.4zM110.3 86.4c-8.4 3.2-16.5 10.5-20.8 18.6 -2.5 4.8-2.5 4.6-0.2 5.3 4 1.3 6.4 4.5 6.4 8.4 0 2.6-0.9 4.6-2.8 6.4 -1.7 1.6-2.7 2-5.8 2.3l-2.4 0.2 0.2 1.5c0.4 2.8 1.9 8.1 3.2 11 2.7 6.3 7.7 12.5 14 17 2 1.5 7.5 4.3 8.3 4.3 0.3 0 1-0.8 1.7-1.8 2.6-4 7-5.7 11.4-4.4 2.6 0.7 5.9 4.4 6.7 7.4 0.2 1 0.3 1 2 0.8 0.9-0.1 3-0.6 4.6-1.2 10.3-3.4 19-10.9 23.9-20.5 1.5-2.9 3.2-8.1 3.5-10.6 0.2-1.7 0.2-1.9-0.5-1.9 -1.8 0-4.5-1.2-6.3-2.8 -2.3-2.1-3.5-4.5-3.8-7.8l-0.2-2.4 -1.9-0.2c-2.8-0.3-6.1-2.1-8.2-4.4 -1.6-1.7-2.3-3-3.5-6.6 -0.1-0.2-1.3-0.5-2.8-0.6 -6.6-0.4-11.4-5.1-12.4-12.2 -0.3-2.2-0.5-2.7-1-2.7 -1.4 0-4.7-1.5-6.5-3.1 -1.1-0.9-1.6-1.4-2.4-1.4 -0.8 0-1.9 0.4-4.2 1.3zM72.7 87.4c0.1 0 0.6 1.1 1 2.5l0.8 2.5 3 0.1 3 0.1 -2.3 1.6c-1.2 0.9-2.3 1.8-2.3 2 0 0.2 0.3 1.4 0.7 2.5 0.4 1.2 0.7 2.3 0.7 2.5 0 0.2-1.1-0.4-2.4-1.3l-2.4-1.7 -1.9 1.4c-2.7 2-3 2.1-2.8 1.5 0.1-0.3 0.5-1.5 0.8-2.7l0.6-2.2 -1.2-1.1c-0.7-0.6-1.7-1.5-2.3-1.9l-1.1-0.8 3 0 3 0 0.8-2.5c0.5-1.4 0.9-2.5 1-2.5zM177.3 90.1l0.8 2.3 3 0.1 3 0.1 -2.2 1.6c-1.2 0.9-2.2 1.9-2.2 2.2 0 0.3 0.3 1.5 0.6 2.6 0.3 1.1 0.5 2.1 0.4 2.2 -0.1 0.1-1.1-0.5-2.2-1.3 -1.3-1-2.2-1.4-2.5-1.2 -0.3 0.2-1.3 0.9-2.4 1.7 -1 0.8-1.9 1.3-1.9 1.1 0-0.2 0.3-1.4 0.8-2.8 0.9-2.8 1.1-2.3-2.2-4.7l-1.6-1.2 2.9-0.1 2.9-0.1 0.8-2.6c0.5-1.4 0.9-2.5 1.1-2.3 0.1 0.1 0.6 1.3 1 2.5zM119.5 101.4c0 2.2-0.5 3.5-1.9 5 -2.3 2.5-6.2 3-8.9 1.3 -2.3-1.5-3.4-3.5-3.4-6.1 0-3.7 2-6.3 5.4-7.2 0.6-0.1 1.1-0.2 1.6-0.2 3.8 0 7.2 3.2 7.2 7.2zM109.4 99.8c-0.7 1.5-0.7 2.3 0.2 3.5 1.4 1.7 3.3 2 4.8 0.6 1.7-1.5 1.4-4.3-0.5-5.4 -0.7-0.4-1.4-0.5-2-0.5 -1 0.1-1.9 0.7-2.5 1.8zM85.6 115.9c-0.5 2.3-0.7 6.6-0.3 7.3 0.4 0.7 3.1 0.5 4.4-0.3 4-2.4 2.3-8.8-2.3-8.9 -1.3 0-1.3 0-1.8 2zM185.5 121.5l0.9 2.8 2.9 0.1 2.9 0.1 -2.2 1.6c-1.2 0.9-2.2 1.6-2.3 1.7 0 0 0.3 1.3 0.7 2.7 0.4 1.5 0.7 2.7 0.6 2.8 -0.1 0-1-0.5-2.1-1.3 -1.1-0.8-2.2-1.4-2.5-1.4 -0.3 0-1.3 0.6-2.3 1.3 -2.5 1.9-2.5 1.9-1.3-2.1l0.5-1.7 -2.4-1.8 -2.4-1.8 3-0.1 3-0.1 0.9-2.7 0.9-2.7zM65.1 121.6l0.9 2.8h2.9c1.6 0 2.9 0.1 2.9 0.3 0 0.2-0.4 0.6-1 0.9 -0.5 0.3-1.5 1.1-2.2 1.6l-1.2 1 0.7 2.4c0.4 1.3 0.7 2.5 0.7 2.7 0 0.2-1-0.4-2.3-1.4l-2.3-1.6 -2.1 1.6c-1.2 0.9-2.3 1.6-2.4 1.6 -0.1 0 0.2-1.2 0.6-2.6 1-3 1.1-2.9-1.9-4.9l-2-1.4 3-0.2 3-0.2 1-2.7 1-2.7zM122.1 121.9c2.5 1.2 4.4 3.3 5.7 6 0.8 1.7 0.9 2.4 0.8 5 -0.1 3.5-1 5.6-3.3 7.9 -2.7 2.8-7.4 4.2-10.9 3.2 -3.8-1.1-6.3-3.2-8-6.8 -2.6-5.6 0.2-12.7 6.1-15.4 1.3-0.6 3-0.9 4.8-0.8 1.7 0 3.5 0.4 4.9 1.1zM116.7 124.7c-5.5 0.3-9.2 6-6.7 11.2 2 4.1 7 5.6 11 3.3 6.4-3.7 4.1-13.8-3.2-14.4 -0.4 0-0.8 0-1.1 0zM153.5 138.4c0 4-3.1 7.1-7.1 7 -1.1 0-2.4-0.2-2.9-0.4 -2.4-0.9-4.4-4-4.4-6.8 0-4.1 3-7.1 7-7.1 4.4 0 7.3 2.9 7.3 7.2zM143.2 137.2c-0.5 1.5-0.1 2.8 1.3 3.8 1.2 0.9 2 1 3.4 0.3 1.9-1 2.3-3.8 0.9-5.4 -0.6-0.6-1.4-0.9-2.2-0.9 -1.4 0-2.9 0.8-3.3 2.2zM72.4 148.2c0.1 0.1 0.6 1.2 1 2.5l0.8 2.3 2.6 0.2c1.4 0.1 2.7 0.3 2.8 0.4 0.1 0.1-0.7 0.9-1.8 1.7 -1.1 0.8-2 1.7-2 2 0 0.2 0.3 1.4 0.7 2.6 0.4 1.2 0.6 2.2 0.6 2.3 -0.1 0.1-1.1-0.6-2.3-1.4l-2.2-1.6 -2.2 1.5c-2 1.4-2.6 1.7-2.6 1.4 0-0.1 0.3-1.1 0.7-2.2 0.4-1.2 0.7-2.3 0.7-2.6 0-0.3-1-1.2-2.2-2.1 -1.9-1.4-2.1-1.6-1.4-1.8 0.4-0.1 1.7-0.2 2.9-0.2l2.1 0 0.8-2.5c0.5-1.4 0.9-2.5 1-2.3zM177.7 150.7l0.8 2.3 2.6 0.2c1.4 0.1 2.7 0.3 2.8 0.4 0.1 0.1-0.8 0.9-2 1.8l-2.2 1.5 0.8 2.7c0.5 1.5 0.8 2.7 0.7 2.7 -0.1 0-1.1-0.7-2.3-1.5l-2.1-1.5 -2.1 1.4c-2.5 1.7-2.6 1.8-2.6 1.3 0-0.2 0.3-1.3 0.7-2.5 0.4-1.2 0.7-2.2 0.7-2.4 0-0.1-1-1-2.2-1.9l-2.2-1.6 3-0.3 2.9-0.3 0.8-2.5c0.4-1.4 0.9-2.4 1-2.3 0.1 0.1 0.6 1.2 1 2.5zM117 160.1c-1.5 1.1-2.2 2.4-1.7 2.9 0.9 0.9 11.1 1.5 11.1 0.7 0-0.2-0.3-1-0.6-1.7 -0.9-1.9-3-3.1-5.1-3.1 -1.3 0-2.6 0.3-3.7 1.1zM94.7 169.4c0.1 0.2 0.5 1.2 0.8 2.3 0.4 1.1 0.8 2.2 1 2.5 0.2 0.3 1.3 0.5 3 0.5l2.6 0 -1.3 1c-0.7 0.5-1.7 1.3-2.2 1.8l-0.9 0.8 0.8 2.7c0.4 1.5 0.8 2.7 0.7 2.7 0 0-0.9-0.6-1.9-1.3 -1-0.8-2.1-1.5-2.4-1.6 -0.4-0.1-1.4 0.4-2.7 1.3 -1.1 0.8-2.1 1.5-2.2 1.4 -0.1-0.1 0.2-1.2 0.6-2.4 0.4-1.3 0.7-2.4 0.7-2.6 0-0.2-0.9-1-2.1-1.9l-2.1-1.6 2.7-0.2 2.7-0.2 1-2.7c0.5-1.3 0.9-2.3 1.1-2.4 0 0 0.1 0 0.1 0zM154.4 169.4c0 0 0.1 0 0.1 0 0.1 0.2 0.6 1.2 0.9 2.3 0.4 1.1 0.8 2.2 1 2.5 0.2 0.3 1.4 0.5 3.1 0.5h2.7l-2.2 1.6c-1.2 0.9-2.2 1.9-2.2 2.1 0 0.3 0.3 1.5 0.7 2.6 0.4 1.2 0.7 2.2 0.6 2.3 -0.1 0.1-1.1-0.5-2.2-1.3 -1.1-0.8-2.1-1.5-2.3-1.5 -0.2 0-1.2 0.7-2.4 1.5 -1.1 0.8-2.1 1.5-2.2 1.5 -0.1 0 0.1-0.8 0.4-1.7 1.1-3.6 1.2-3.5-1.1-5.2l-2.1-1.6 2.6-0.1c1.5-0.1 2.7-0.3 2.9-0.5 0.2-0.2 0.6-1.5 1-2.7 0.3-1.1 0.7-1.9 0.9-2zM124.9 178.9c0.2 0.1 0.6 1.1 1.1 2.4l1 2.7 2.9 0.1 2.9 0.1 -2.2 1.6c-1.2 0.9-2.2 1.8-2.2 1.9 0 0.2 0.3 1.3 0.7 2.5 0.4 1.2 0.7 2.3 0.6 2.4 0 0.2-1-0.4-2.1-1.2 -1.1-0.8-2.2-1.4-2.4-1.5 -0.2 0-1.3 0.6-2.4 1.5 -1.1 0.8-2.2 1.5-2.3 1.5 -0.1 0 0.1-1 0.5-2.2 0.4-1.2 0.7-2.5 0.7-2.9 0-0.4-0.9-1.2-2.1-2.1l-2.1-1.4 2.8-0.1 2.8-0.1 0.8-2.4c0.4-1.3 0.9-2.6 1-2.8 0 0 0 0 0.1 0z" fill="#fff"/></svg>